<svg viewBox="0 0 666 47" fill="none" xmlns="http://www.w3.org/2000/svg">
    <rect x="327" y="1" width="200" height="45" rx="10" stroke="#F49F0A" stroke-width="2" />
    <rect y="8" width="666" height="30" rx="15" fill="#38373D" />
    <path
        d="M134.69 29H133.577V14.75H134.69V29ZM138.958 29H137.845V18.9619H138.958V29ZM137.65 16.0581C137.65 15.8478 137.718 15.6715 137.854 15.5293C137.99 15.3809 138.176 15.3066 138.411 15.3066C138.646 15.3066 138.831 15.3809 138.967 15.5293C139.11 15.6715 139.181 15.8478 139.181 16.0581C139.181 16.2684 139.11 16.4447 138.967 16.5869C138.831 16.7292 138.646 16.8003 138.411 16.8003C138.176 16.8003 137.99 16.7292 137.854 16.5869C137.718 16.4447 137.65 16.2684 137.65 16.0581ZM143.04 18.9619L143.077 20.6782C143.454 20.0597 143.924 19.5897 144.487 19.2681C145.05 18.9403 145.672 18.7764 146.352 18.7764C147.428 18.7764 148.229 19.0794 148.755 19.6855C149.281 20.2917 149.547 21.2008 149.553 22.4131V29H148.449V22.4038C148.443 21.507 148.251 20.839 147.874 20.3999C147.502 19.9608 146.906 19.7412 146.083 19.7412C145.396 19.7412 144.787 19.9577 144.255 20.3906C143.73 20.8174 143.34 21.3957 143.086 22.1255V29H141.982V18.9619H143.04ZM154.813 23.9438L153.542 25.1685V29H152.429V14.75H153.542V23.8696L154.59 22.7378L158.431 18.9619H159.832L155.574 23.1924L160.203 29H158.876L154.813 23.9438ZM165.445 29.1855C164.591 29.1855 163.818 28.9753 163.125 28.5547C162.439 28.1341 161.904 27.5496 161.521 26.8013C161.137 26.0467 160.945 25.2025 160.945 24.2686V23.8696C160.945 22.9048 161.131 22.0358 161.502 21.2627C161.879 20.4896 162.402 19.8835 163.07 19.4443C163.738 18.999 164.461 18.7764 165.241 18.7764C166.459 18.7764 167.424 19.1938 168.135 20.0288C168.853 20.8576 169.211 21.9925 169.211 23.4336V24.0552H162.049V24.2686C162.049 25.4066 162.374 26.356 163.023 27.1167C163.679 27.8713 164.502 28.2485 165.491 28.2485C166.085 28.2485 166.608 28.1403 167.059 27.9238C167.517 27.7074 167.931 27.361 168.302 26.8848L168.998 27.4136C168.182 28.5949 166.997 29.1855 165.445 29.1855ZM165.241 19.7227C164.406 19.7227 163.701 20.0288 163.125 20.6411C162.556 21.2534 162.21 22.076 162.086 23.1089H168.107V22.9883C168.076 22.0234 167.801 21.238 167.282 20.6318C166.762 20.0257 166.082 19.7227 165.241 19.7227ZM170.928 23.8882C170.928 22.3296 171.274 21.0895 171.967 20.168C172.666 19.2402 173.612 18.7764 174.806 18.7764C176.16 18.7764 177.193 19.3114 177.904 20.3813V14.75H179.008V29H177.969L177.923 27.6641C177.212 28.6784 176.166 29.1855 174.787 29.1855C173.631 29.1855 172.697 28.7217 171.985 27.7939C171.28 26.86 170.928 25.6014 170.928 24.0181V23.8882ZM172.05 24.083C172.05 25.3633 172.307 26.3745 172.82 27.1167C173.334 27.8527 174.057 28.2207 174.991 28.2207C176.358 28.2207 177.329 27.6177 177.904 26.4116V21.6987C177.329 20.3937 176.364 19.7412 175.01 19.7412C174.076 19.7412 173.349 20.1092 172.83 20.8452C172.31 21.575 172.05 22.6543 172.05 24.083ZM183.174 29H182.061V18.9619H183.174V29ZM181.866 16.0581C181.866 15.8478 181.934 15.6715 182.07 15.5293C182.206 15.3809 182.391 15.3066 182.626 15.3066C182.861 15.3066 183.047 15.3809 183.183 15.5293C183.325 15.6715 183.396 15.8478 183.396 16.0581C183.396 16.2684 183.325 16.4447 183.183 16.5869C183.047 16.7292 182.861 16.8003 182.626 16.8003C182.391 16.8003 182.206 16.7292 182.07 16.5869C181.934 16.4447 181.866 16.2684 181.866 16.0581ZM187.256 18.9619L187.293 20.6782C187.67 20.0597 188.14 19.5897 188.703 19.2681C189.266 18.9403 189.888 18.7764 190.568 18.7764C191.644 18.7764 192.445 19.0794 192.971 19.6855C193.496 20.2917 193.762 21.2008 193.769 22.4131V29H192.665V22.4038C192.658 21.507 192.467 20.839 192.089 20.3999C191.718 19.9608 191.121 19.7412 190.299 19.7412C189.612 19.7412 189.003 19.9577 188.471 20.3906C187.945 20.8174 187.556 21.3957 187.302 22.1255V29H186.198V18.9619H187.256ZM196.542 28.332C196.542 28.1156 196.611 27.9331 196.747 27.7847C196.889 27.63 197.084 27.5527 197.331 27.5527C197.578 27.5527 197.773 27.63 197.916 27.7847C198.058 27.9331 198.129 28.1156 198.129 28.332C198.129 28.5485 198.058 28.7279 197.916 28.8701C197.773 29.0062 197.578 29.0742 197.331 29.0742C197.084 29.0742 196.889 29.0062 196.747 28.8701C196.611 28.7279 196.542 28.5485 196.542 28.332ZM204.901 28.2485C205.674 28.2485 206.321 28.0321 206.84 27.5991C207.366 27.16 207.651 26.5941 207.694 25.9014H208.761C208.73 26.5137 208.538 27.0734 208.186 27.5806C207.833 28.0815 207.363 28.4743 206.775 28.7588C206.194 29.0433 205.569 29.1855 204.901 29.1855C203.584 29.1855 202.539 28.7279 201.766 27.8125C200.999 26.8971 200.615 25.6663 200.615 24.1201V23.7861C200.615 22.7965 200.788 21.9214 201.135 21.1606C201.481 20.3999 201.976 19.8123 202.619 19.3979C203.269 18.9836 204.026 18.7764 204.892 18.7764C205.993 18.7764 206.899 19.1042 207.61 19.7598C208.328 20.4154 208.711 21.2782 208.761 22.3481H207.694C207.644 21.5627 207.36 20.9287 206.84 20.4463C206.327 19.9639 205.678 19.7227 204.892 19.7227C203.89 19.7227 203.111 20.0845 202.554 20.8081C202.004 21.5317 201.729 22.5461 201.729 23.8511V24.1758C201.729 25.4561 202.004 26.4549 202.554 27.1724C203.111 27.8898 203.893 28.2485 204.901 28.2485ZM210.375 23.8325C210.375 22.8677 210.561 21.9987 210.932 21.2256C211.309 20.4525 211.838 19.8525 212.518 19.4258C213.205 18.9928 213.981 18.7764 214.847 18.7764C216.183 18.7764 217.265 19.2464 218.094 20.1865C218.923 21.1204 219.337 22.3605 219.337 23.9067V24.1387C219.337 25.1097 219.148 25.9849 218.771 26.7642C218.4 27.5373 217.874 28.1341 217.194 28.5547C216.514 28.9753 215.737 29.1855 214.865 29.1855C213.535 29.1855 212.453 28.7186 211.618 27.7847C210.789 26.8446 210.375 25.6014 210.375 24.0552V23.8325ZM211.488 24.1387C211.488 25.3385 211.798 26.325 212.416 27.0981C213.041 27.8651 213.857 28.2485 214.865 28.2485C215.867 28.2485 216.677 27.8651 217.296 27.0981C217.921 26.325 218.233 25.3076 218.233 24.0459V23.8325C218.233 23.0656 218.091 22.3636 217.806 21.7266C217.522 21.0895 217.123 20.5978 216.609 20.2515C216.096 19.8989 215.508 19.7227 214.847 19.7227C213.857 19.7227 213.05 20.1123 212.425 20.8916C211.801 21.6647 211.488 22.679 211.488 23.9346V24.1387ZM222.649 18.9619L222.686 20.5947C223.057 19.9886 223.521 19.534 224.078 19.231C224.634 18.9279 225.253 18.7764 225.933 18.7764C227.516 18.7764 228.521 19.4258 228.948 20.7246C229.307 20.0999 229.786 19.6206 230.386 19.2866C230.986 18.9465 231.648 18.7764 232.372 18.7764C234.524 18.7764 235.622 19.9515 235.665 22.3018V29H234.552V22.3853C234.546 21.4884 234.351 20.8236 233.967 20.3906C233.59 19.9577 232.972 19.7412 232.112 19.7412C231.314 19.7536 230.64 20.0133 230.089 20.5205C229.539 21.0215 229.233 21.6338 229.171 22.3574V29H228.058V22.3018C228.051 21.4421 227.847 20.8019 227.445 20.3813C227.049 19.9546 226.437 19.7412 225.608 19.7412C224.91 19.7412 224.31 19.9422 223.809 20.3442C223.308 20.7401 222.937 21.3307 222.695 22.1162V29H221.582V18.9619H222.649Z"
        fill="white" />
    <path
        d="M239.29 30.1597H238.278L243.919 15.4922H244.921L239.29 30.1597ZM250.71 28.2485C251.483 28.2485 252.129 28.0321 252.649 27.5991C253.175 27.16 253.459 26.5941 253.502 25.9014H254.569C254.538 26.5137 254.347 27.0734 253.994 27.5806C253.642 28.0815 253.172 28.4743 252.584 28.7588C252.003 29.0433 251.378 29.1855 250.71 29.1855C249.393 29.1855 248.347 28.7279 247.574 27.8125C246.807 26.8971 246.424 25.6663 246.424 24.1201V23.7861C246.424 22.7965 246.597 21.9214 246.943 21.1606C247.29 20.3999 247.785 19.8123 248.428 19.3979C249.077 18.9836 249.835 18.7764 250.701 18.7764C251.802 18.7764 252.708 19.1042 253.419 19.7598C254.136 20.4154 254.52 21.2782 254.569 22.3481H253.502C253.453 21.5627 253.168 20.9287 252.649 20.4463C252.136 19.9639 251.486 19.7227 250.701 19.7227C249.699 19.7227 248.919 20.0845 248.363 20.8081C247.812 21.5317 247.537 22.5461 247.537 23.8511V24.1758C247.537 25.4561 247.812 26.4549 248.363 27.1724C248.919 27.8898 249.702 28.2485 250.71 28.2485ZM256.184 23.8325C256.184 22.8677 256.369 21.9987 256.74 21.2256C257.118 20.4525 257.646 19.8525 258.327 19.4258C259.013 18.9928 259.789 18.7764 260.655 18.7764C261.991 18.7764 263.074 19.2464 263.902 20.1865C264.731 21.1204 265.146 22.3605 265.146 23.9067V24.1387C265.146 25.1097 264.957 25.9849 264.58 26.7642C264.208 27.5373 263.683 28.1341 263.002 28.5547C262.322 28.9753 261.546 29.1855 260.674 29.1855C259.344 29.1855 258.262 28.7186 257.427 27.7847C256.598 26.8446 256.184 25.6014 256.184 24.0552V23.8325ZM257.297 24.1387C257.297 25.3385 257.606 26.325 258.225 27.0981C258.849 27.8651 259.666 28.2485 260.674 28.2485C261.676 28.2485 262.486 27.8651 263.104 27.0981C263.729 26.325 264.042 25.3076 264.042 24.0459V23.8325C264.042 23.0656 263.899 22.3636 263.615 21.7266C263.33 21.0895 262.931 20.5978 262.418 20.2515C261.905 19.8989 261.317 19.7227 260.655 19.7227C259.666 19.7227 258.859 20.1123 258.234 20.8916C257.609 21.6647 257.297 22.679 257.297 23.9346V24.1387ZM268.458 18.9619L268.495 20.5947C268.866 19.9886 269.33 19.534 269.886 19.231C270.443 18.9279 271.061 18.7764 271.742 18.7764C273.325 18.7764 274.33 19.4258 274.757 20.7246C275.116 20.0999 275.595 19.6206 276.195 19.2866C276.795 18.9465 277.457 18.7764 278.18 18.7764C280.333 18.7764 281.43 19.9515 281.474 22.3018V29H280.36V22.3853C280.354 21.4884 280.159 20.8236 279.776 20.3906C279.399 19.9577 278.78 19.7412 277.92 19.7412C277.123 19.7536 276.448 20.0133 275.898 20.5205C275.347 21.0215 275.041 21.6338 274.979 22.3574V29H273.866V22.3018C273.86 21.4421 273.656 20.8019 273.254 20.3813C272.858 19.9546 272.246 19.7412 271.417 19.7412C270.718 19.7412 270.118 19.9422 269.617 20.3442C269.116 20.7401 268.745 21.3307 268.504 22.1162V29H267.391V18.9619H268.458ZM292.365 24.083C292.365 25.6478 292.019 26.891 291.326 27.8125C290.633 28.7279 289.706 29.1855 288.543 29.1855C287.17 29.1855 286.118 28.7031 285.389 27.7383V32.8594H284.285V18.9619H285.314L285.37 20.3813C286.094 19.3114 287.142 18.7764 288.515 18.7764C289.715 18.7764 290.655 19.231 291.335 20.1401C292.022 21.0493 292.365 22.311 292.365 23.9253V24.083ZM291.252 23.8882C291.252 22.6079 290.989 21.5967 290.463 20.8545C289.938 20.1123 289.205 19.7412 288.265 19.7412C287.584 19.7412 287 19.9051 286.511 20.2329C286.023 20.5607 285.648 21.0369 285.389 21.6616V26.4766C285.655 27.0518 286.035 27.4909 286.53 27.7939C287.025 28.097 287.609 28.2485 288.283 28.2485C289.217 28.2485 289.944 27.8774 290.463 27.1353C290.989 26.3869 291.252 25.3045 291.252 23.8882ZM301.169 29C301.058 28.6846 300.987 28.2176 300.956 27.5991C300.566 28.1063 300.069 28.499 299.462 28.7773C298.862 29.0495 298.225 29.1855 297.551 29.1855C296.586 29.1855 295.804 28.9165 295.204 28.3784C294.61 27.8403 294.313 27.16 294.313 26.3374C294.313 25.3602 294.719 24.5871 295.529 24.0181C296.345 23.4491 297.48 23.1646 298.934 23.1646H300.947V22.0234C300.947 21.306 300.724 20.7432 300.279 20.335C299.84 19.9206 299.196 19.7134 298.349 19.7134C297.576 19.7134 296.936 19.9113 296.429 20.3071C295.922 20.703 295.668 21.1792 295.668 21.7358L294.555 21.7266C294.555 20.9287 294.926 20.2391 295.668 19.6577C296.41 19.0701 297.322 18.7764 298.405 18.7764C299.524 18.7764 300.406 19.0578 301.049 19.6206C301.698 20.1772 302.032 20.9565 302.051 21.9585V26.7085C302.051 27.6795 302.153 28.4062 302.357 28.8887V29H301.169ZM297.681 28.2021C298.423 28.2021 299.085 28.0228 299.667 27.6641C300.254 27.3053 300.681 26.826 300.947 26.2261V24.0181H298.961C297.854 24.0304 296.988 24.2345 296.364 24.6304C295.739 25.02 295.427 25.5581 295.427 26.2446C295.427 26.8075 295.634 27.2744 296.048 27.6455C296.469 28.0166 297.013 28.2021 297.681 28.2021ZM306.077 18.9619L306.114 20.6782C306.492 20.0597 306.962 19.5897 307.524 19.2681C308.087 18.9403 308.709 18.7764 309.389 18.7764C310.465 18.7764 311.266 19.0794 311.792 19.6855C312.318 20.2917 312.584 21.2008 312.59 22.4131V29H311.486V22.4038C311.48 21.507 311.288 20.839 310.911 20.3999C310.54 19.9608 309.943 19.7412 309.12 19.7412C308.434 19.7412 307.824 19.9577 307.292 20.3906C306.767 20.8174 306.377 21.3957 306.124 22.1255V29H305.02V18.9619H306.077ZM318.648 27.4043L321.58 18.9619H322.776L318.49 30.707L318.268 31.2266C317.717 32.445 316.867 33.0542 315.716 33.0542C315.45 33.0542 315.166 33.0109 314.863 32.9243L314.854 32.0059L315.429 32.0615C315.973 32.0615 316.412 31.9255 316.746 31.6533C317.086 31.3874 317.374 30.9266 317.609 30.271L318.101 28.9165L314.315 18.9619H315.531L318.648 27.4043ZM324.344 30.1597H323.333L328.974 15.4922H329.976L324.344 30.1597ZM524.586 30.1597H523.575L529.216 15.4922H530.218L524.586 30.1597Z"
        fill="#9D9D9D" />
    <path
        d="M333.111 18.9619L333.148 20.6782C333.526 20.0597 333.996 19.5897 334.559 19.2681C335.121 18.9403 335.743 18.7764 336.423 18.7764C337.5 18.7764 338.3 19.0794 338.826 19.6855C339.352 20.2917 339.618 21.2008 339.624 22.4131V29H338.52V22.4038C338.514 21.507 338.322 20.839 337.945 20.3999C337.574 19.9608 336.977 19.7412 336.154 19.7412C335.468 19.7412 334.859 19.9577 334.327 20.3906C333.801 20.8174 333.411 21.3957 333.158 22.1255V29H332.054V18.9619H333.111ZM348.836 29C348.725 28.6846 348.654 28.2176 348.623 27.5991C348.233 28.1063 347.736 28.499 347.129 28.7773C346.529 29.0495 345.892 29.1855 345.218 29.1855C344.253 29.1855 343.471 28.9165 342.871 28.3784C342.277 27.8403 341.98 27.16 341.98 26.3374C341.98 25.3602 342.386 24.5871 343.196 24.0181C344.012 23.4491 345.147 23.1646 346.601 23.1646H348.614V22.0234C348.614 21.306 348.391 20.7432 347.946 20.335C347.507 19.9206 346.863 19.7134 346.016 19.7134C345.243 19.7134 344.603 19.9113 344.096 20.3071C343.589 20.703 343.335 21.1792 343.335 21.7358L342.222 21.7266C342.222 20.9287 342.593 20.2391 343.335 19.6577C344.077 19.0701 344.989 18.7764 346.072 18.7764C347.191 18.7764 348.073 19.0578 348.716 19.6206C349.365 20.1772 349.699 20.9565 349.718 21.9585V26.7085C349.718 27.6795 349.82 28.4062 350.024 28.8887V29H348.836ZM345.348 28.2021C346.09 28.2021 346.752 28.0228 347.333 27.6641C347.921 27.3053 348.348 26.826 348.614 26.2261V24.0181H346.628C345.521 24.0304 344.655 24.2345 344.031 24.6304C343.406 25.02 343.094 25.5581 343.094 26.2446C343.094 26.8075 343.301 27.2744 343.715 27.6455C344.136 28.0166 344.68 28.2021 345.348 28.2021ZM353.698 18.9619L353.735 20.5947C354.106 19.9886 354.57 19.534 355.126 19.231C355.683 18.9279 356.302 18.7764 356.982 18.7764C358.565 18.7764 359.57 19.4258 359.997 20.7246C360.356 20.0999 360.835 19.6206 361.435 19.2866C362.035 18.9465 362.697 18.7764 363.42 18.7764C365.573 18.7764 366.671 19.9515 366.714 22.3018V29H365.601V22.3853C365.594 21.4884 365.4 20.8236 365.016 20.3906C364.639 19.9577 364.02 19.7412 363.161 19.7412C362.363 19.7536 361.689 20.0133 361.138 20.5205C360.588 21.0215 360.282 21.6338 360.22 22.3574V29H359.106V22.3018C359.1 21.4421 358.896 20.8019 358.494 20.3813C358.098 19.9546 357.486 19.7412 356.657 19.7412C355.958 19.7412 355.358 19.9422 354.857 20.3442C354.356 20.7401 353.985 21.3307 353.744 22.1162V29H352.631V18.9619H353.698ZM373.421 29.1855C372.568 29.1855 371.795 28.9753 371.102 28.5547C370.416 28.1341 369.881 27.5496 369.497 26.8013C369.114 26.0467 368.922 25.2025 368.922 24.2686V23.8696C368.922 22.9048 369.107 22.0358 369.479 21.2627C369.856 20.4896 370.378 19.8835 371.046 19.4443C371.714 18.999 372.438 18.7764 373.217 18.7764C374.436 18.7764 375.401 19.1938 376.112 20.0288C376.829 20.8576 377.188 21.9925 377.188 23.4336V24.0552H370.026V24.2686C370.026 25.4066 370.351 26.356 371 27.1167C371.656 27.8713 372.478 28.2485 373.468 28.2485C374.062 28.2485 374.584 28.1403 375.036 27.9238C375.493 27.7074 375.908 27.361 376.279 26.8848L376.975 27.4136C376.158 28.5949 374.974 29.1855 373.421 29.1855ZM373.217 19.7227C372.382 19.7227 371.677 20.0288 371.102 20.6411C370.533 21.2534 370.187 22.076 370.063 23.1089H376.084V22.9883C376.053 22.0234 375.778 21.238 375.258 20.6318C374.739 20.0257 374.058 19.7227 373.217 19.7227ZM386.085 29.937H377.912V29H386.085V29.937ZM386.938 23.8325C386.938 22.8677 387.124 21.9987 387.495 21.2256C387.872 20.4525 388.401 19.8525 389.082 19.4258C389.768 18.9928 390.544 18.7764 391.41 18.7764C392.746 18.7764 393.828 19.2464 394.657 20.1865C395.486 21.1204 395.9 22.3605 395.9 23.9067V24.1387C395.9 25.1097 395.712 25.9849 395.334 26.7642C394.963 27.5373 394.438 28.1341 393.757 28.5547C393.077 28.9753 392.301 29.1855 391.429 29.1855C390.099 29.1855 389.017 28.7186 388.182 27.7847C387.353 26.8446 386.938 25.6014 386.938 24.0552V23.8325ZM388.052 24.1387C388.052 25.3385 388.361 26.325 388.979 27.0981C389.604 27.8651 390.421 28.2485 391.429 28.2485C392.431 28.2485 393.241 27.8651 393.859 27.0981C394.484 26.325 394.796 25.3076 394.796 24.0459V23.8325C394.796 23.0656 394.654 22.3636 394.37 21.7266C394.085 21.0895 393.686 20.5978 393.173 20.2515C392.66 19.8989 392.072 19.7227 391.41 19.7227C390.421 19.7227 389.613 20.1123 388.989 20.8916C388.364 21.6647 388.052 22.679 388.052 23.9346V24.1387ZM398.999 29V19.8711H397.338V18.9619H398.999V17.7466C398.999 16.7199 399.259 15.9313 399.778 15.3809C400.304 14.8304 401.034 14.5552 401.968 14.5552C402.388 14.5552 402.781 14.6077 403.146 14.7129L403.062 15.6406C402.753 15.5664 402.416 15.5293 402.051 15.5293C401.439 15.5293 400.963 15.721 400.623 16.1045C400.282 16.4818 400.112 17.0199 400.112 17.7188V18.9619H402.506V19.8711H400.112V29H398.999ZM411.227 29.937H403.053V29H411.227V29.937ZM414.418 16.3921V18.9619H416.496V19.8711H414.418V26.5601C414.418 27.1167 414.517 27.5311 414.715 27.8032C414.919 28.0754 415.256 28.2114 415.726 28.2114C415.912 28.2114 416.212 28.1805 416.626 28.1187L416.672 29.0278C416.382 29.133 415.986 29.1855 415.485 29.1855C414.724 29.1855 414.171 28.966 413.824 28.5269C413.478 28.0815 413.305 27.429 413.305 26.5693V19.8711H411.458V18.9619H413.305V16.3921H414.418ZM419.901 20.6597C420.266 20.0597 420.733 19.5959 421.302 19.2681C421.871 18.9403 422.492 18.7764 423.167 18.7764C424.243 18.7764 425.044 19.0794 425.569 19.6855C426.095 20.2917 426.361 21.2008 426.367 22.4131V29H425.263V22.4038C425.257 21.507 425.065 20.839 424.688 20.3999C424.317 19.9608 423.72 19.7412 422.897 19.7412C422.211 19.7412 421.602 19.9577 421.07 20.3906C420.544 20.8174 420.154 21.3957 419.901 22.1255V29H418.797V14.75H419.901V20.6597ZM433.112 29.1855C432.258 29.1855 431.485 28.9753 430.792 28.5547C430.106 28.1341 429.571 27.5496 429.188 26.8013C428.804 26.0467 428.612 25.2025 428.612 24.2686V23.8696C428.612 22.9048 428.798 22.0358 429.169 21.2627C429.546 20.4896 430.069 19.8835 430.737 19.4443C431.405 18.999 432.128 18.7764 432.908 18.7764C434.126 18.7764 435.091 19.1938 435.802 20.0288C436.52 20.8576 436.878 21.9925 436.878 23.4336V24.0552H429.716V24.2686C429.716 25.4066 430.041 26.356 430.69 27.1167C431.346 27.8713 432.169 28.2485 433.158 28.2485C433.752 28.2485 434.275 28.1403 434.726 27.9238C435.184 27.7074 435.598 27.361 435.969 26.8848L436.665 27.4136C435.849 28.5949 434.664 29.1855 433.112 29.1855ZM432.908 19.7227C432.073 19.7227 431.368 20.0288 430.792 20.6411C430.223 21.2534 429.877 22.076 429.753 23.1089H435.774V22.9883C435.743 22.0234 435.468 21.238 434.949 20.6318C434.429 20.0257 433.749 19.7227 432.908 19.7227ZM445.775 29.937H437.602V29H445.775V29.937ZM450.952 28.2485C451.725 28.2485 452.372 28.0321 452.891 27.5991C453.417 27.16 453.701 26.5941 453.745 25.9014H454.812C454.781 26.5137 454.589 27.0734 454.236 27.5806C453.884 28.0815 453.414 28.4743 452.826 28.7588C452.245 29.0433 451.62 29.1855 450.952 29.1855C449.635 29.1855 448.59 28.7279 447.816 27.8125C447.049 26.8971 446.666 25.6663 446.666 24.1201V23.7861C446.666 22.7965 446.839 21.9214 447.186 21.1606C447.532 20.3999 448.027 19.8123 448.67 19.3979C449.319 18.9836 450.077 18.7764 450.943 18.7764C452.044 18.7764 452.95 19.1042 453.661 19.7598C454.379 20.4154 454.762 21.2782 454.812 22.3481H453.745C453.695 21.5627 453.411 20.9287 452.891 20.4463C452.378 19.9639 451.728 19.7227 450.943 19.7227C449.941 19.7227 449.162 20.0845 448.605 20.8081C448.055 21.5317 447.779 22.5461 447.779 23.8511V24.1758C447.779 25.4561 448.055 26.4549 448.605 27.1724C449.162 27.8898 449.944 28.2485 450.952 28.2485ZM456.426 23.8325C456.426 22.8677 456.611 21.9987 456.982 21.2256C457.36 20.4525 457.889 19.8525 458.569 19.4258C459.255 18.9928 460.032 18.7764 460.897 18.7764C462.233 18.7764 463.316 19.2464 464.145 20.1865C464.973 21.1204 465.388 22.3605 465.388 23.9067V24.1387C465.388 25.1097 465.199 25.9849 464.822 26.7642C464.451 27.5373 463.925 28.1341 463.245 28.5547C462.564 28.9753 461.788 29.1855 460.916 29.1855C459.586 29.1855 458.504 28.7186 457.669 27.7847C456.84 26.8446 456.426 25.6014 456.426 24.0552V23.8325ZM457.539 24.1387C457.539 25.3385 457.848 26.325 458.467 27.0981C459.091 27.8651 459.908 28.2485 460.916 28.2485C461.918 28.2485 462.728 27.8651 463.347 27.0981C463.971 26.325 464.284 25.3076 464.284 24.0459V23.8325C464.284 23.0656 464.141 22.3636 463.857 21.7266C463.572 21.0895 463.174 20.5978 462.66 20.2515C462.147 19.8989 461.559 19.7227 460.897 19.7227C459.908 19.7227 459.101 20.1123 458.476 20.8916C457.851 21.6647 457.539 22.679 457.539 23.9346V24.1387ZM468.7 18.9619L468.737 20.5947C469.108 19.9886 469.572 19.534 470.128 19.231C470.685 18.9279 471.304 18.7764 471.984 18.7764C473.567 18.7764 474.572 19.4258 474.999 20.7246C475.358 20.0999 475.837 19.6206 476.437 19.2866C477.037 18.9465 477.699 18.7764 478.422 18.7764C480.575 18.7764 481.673 19.9515 481.716 22.3018V29H480.603V22.3853C480.596 21.4884 480.402 20.8236 480.018 20.3906C479.641 19.9577 479.022 19.7412 478.163 19.7412C477.365 19.7536 476.691 20.0133 476.14 20.5205C475.59 21.0215 475.284 21.6338 475.222 22.3574V29H474.108V22.3018C474.102 21.4421 473.898 20.8019 473.496 20.3813C473.1 19.9546 472.488 19.7412 471.659 19.7412C470.96 19.7412 470.36 19.9422 469.859 20.3442C469.358 20.7401 468.987 21.3307 468.746 22.1162V29H467.633V18.9619H468.7ZM492.607 24.083C492.607 25.6478 492.261 26.891 491.568 27.8125C490.876 28.7279 489.948 29.1855 488.785 29.1855C487.412 29.1855 486.361 28.7031 485.631 27.7383V32.8594H484.527V18.9619H485.557L485.612 20.3813C486.336 19.3114 487.384 18.7764 488.757 18.7764C489.957 18.7764 490.897 19.231 491.578 20.1401C492.264 21.0493 492.607 22.311 492.607 23.9253V24.083ZM491.494 23.8882C491.494 22.6079 491.231 21.5967 490.706 20.8545C490.18 20.1123 489.447 19.7412 488.507 19.7412C487.826 19.7412 487.242 19.9051 486.753 20.2329C486.265 20.5607 485.891 21.0369 485.631 21.6616V26.4766C485.897 27.0518 486.277 27.4909 486.772 27.7939C487.267 28.097 487.851 28.2485 488.525 28.2485C489.459 28.2485 490.186 27.8774 490.706 27.1353C491.231 26.3869 491.494 25.3045 491.494 23.8882ZM501.412 29C501.3 28.6846 501.229 28.2176 501.198 27.5991C500.809 28.1063 500.311 28.499 499.705 28.7773C499.105 29.0495 498.468 29.1855 497.793 29.1855C496.829 29.1855 496.046 28.9165 495.446 28.3784C494.853 27.8403 494.556 27.16 494.556 26.3374C494.556 25.3602 494.961 24.5871 495.771 24.0181C496.587 23.4491 497.722 23.1646 499.176 23.1646H501.189V22.0234C501.189 21.306 500.966 20.7432 500.521 20.335C500.082 19.9206 499.439 19.7134 498.591 19.7134C497.818 19.7134 497.178 19.9113 496.671 20.3071C496.164 20.703 495.91 21.1792 495.91 21.7358L494.797 21.7266C494.797 20.9287 495.168 20.2391 495.91 19.6577C496.652 19.0701 497.565 18.7764 498.647 18.7764C499.766 18.7764 500.648 19.0578 501.291 19.6206C501.94 20.1772 502.274 20.9565 502.293 21.9585V26.7085C502.293 27.6795 502.395 28.4062 502.599 28.8887V29H501.412ZM497.923 28.2021C498.666 28.2021 499.327 28.0228 499.909 27.6641C500.496 27.3053 500.923 26.826 501.189 26.2261V24.0181H499.204C498.097 24.0304 497.231 24.2345 496.606 24.6304C495.981 25.02 495.669 25.5581 495.669 26.2446C495.669 26.8075 495.876 27.2744 496.291 27.6455C496.711 28.0166 497.255 28.2021 497.923 28.2021ZM506.319 18.9619L506.356 20.6782C506.734 20.0597 507.204 19.5897 507.767 19.2681C508.329 18.9403 508.951 18.7764 509.631 18.7764C510.708 18.7764 511.508 19.0794 512.034 19.6855C512.56 20.2917 512.826 21.2008 512.832 22.4131V29H511.728V22.4038C511.722 21.507 511.53 20.839 511.153 20.3999C510.782 19.9608 510.185 19.7412 509.362 19.7412C508.676 19.7412 508.067 19.9577 507.535 20.3906C507.009 20.8174 506.619 21.3957 506.366 22.1255V29H505.262V18.9619H506.319ZM518.89 27.4043L521.822 18.9619H523.019L518.732 30.707L518.51 31.2266C517.959 32.445 517.109 33.0542 515.958 33.0542C515.693 33.0542 515.408 33.0109 515.105 32.9243L515.096 32.0059L515.671 32.0615C516.215 32.0615 516.654 31.9255 516.988 31.6533C517.328 31.3874 517.616 30.9266 517.851 30.271L518.343 28.9165L514.558 18.9619H515.773L518.89 27.4043Z"
        fill="#F49F0A" />
    <path
        d="M27.5513 20.6597C27.9162 20.0597 28.3831 19.5959 28.9521 19.2681C29.5212 18.9403 30.1427 18.7764 30.8169 18.7764C31.8931 18.7764 32.694 19.0794 33.2197 19.6855C33.7454 20.2917 34.0114 21.2008 34.0176 22.4131V29H32.9136V22.4038C32.9074 21.507 32.7157 20.839 32.3384 20.3999C31.9673 19.9608 31.3704 19.7412 30.5479 19.7412C29.8613 19.7412 29.2521 19.9577 28.7202 20.3906C28.1945 20.8174 27.8049 21.3957 27.5513 22.1255V29H26.4473V14.75H27.5513V20.6597ZM38.6006 16.3921V18.9619H40.6787V19.8711H38.6006V26.5601C38.6006 27.1167 38.6995 27.5311 38.8975 27.8032C39.1016 28.0754 39.4386 28.2114 39.9087 28.2114C40.0942 28.2114 40.3942 28.1805 40.8086 28.1187L40.855 29.0278C40.5643 29.133 40.1685 29.1855 39.6675 29.1855C38.9067 29.1855 38.3532 28.966 38.0068 28.5269C37.6605 28.0815 37.4873 27.429 37.4873 26.5693V19.8711H35.6411V18.9619H37.4873V16.3921H38.6006ZM44.7051 16.3921V18.9619H46.7832V19.8711H44.7051V26.5601C44.7051 27.1167 44.804 27.5311 45.002 27.8032C45.2061 28.0754 45.5431 28.2114 46.0132 28.2114C46.1987 28.2114 46.4987 28.1805 46.9131 28.1187L46.9595 29.0278C46.6688 29.133 46.2729 29.1855 45.772 29.1855C45.0112 29.1855 44.4577 28.966 44.1113 28.5269C43.765 28.0815 43.5918 27.429 43.5918 26.5693V19.8711H41.7456V18.9619H43.5918V16.3921H44.7051ZM57.1553 24.083C57.1553 25.6478 56.8089 26.891 56.1162 27.8125C55.4235 28.7279 54.4958 29.1855 53.333 29.1855C51.96 29.1855 50.9085 28.7031 50.1787 27.7383V32.8594H49.0747V18.9619H50.1045L50.1602 20.3813C50.8838 19.3114 51.9321 18.7764 53.3052 18.7764C54.505 18.7764 55.4451 19.231 56.1255 20.1401C56.812 21.0493 57.1553 22.311 57.1553 23.9253V24.083ZM56.042 23.8882C56.042 22.6079 55.7791 21.5967 55.2534 20.8545C54.7277 20.1123 53.9948 19.7412 53.0547 19.7412C52.3743 19.7412 51.7899 19.9051 51.3013 20.2329C50.8127 20.5607 50.4385 21.0369 50.1787 21.6616V26.4766C50.4447 27.0518 50.825 27.4909 51.3198 27.7939C51.8146 28.097 52.3991 28.2485 53.0732 28.2485C54.0072 28.2485 54.7339 27.8774 55.2534 27.1353C55.7791 26.3869 56.042 25.3045 56.042 23.8882ZM65.6348 26.4487C65.6348 25.8983 65.4121 25.4561 64.9668 25.1221C64.5277 24.7881 63.8628 24.5283 62.9722 24.3428C62.0815 24.151 61.3888 23.9346 60.894 23.6934C60.4054 23.446 60.0405 23.146 59.7993 22.7935C59.5643 22.4409 59.4468 22.0142 59.4468 21.5132C59.4468 20.7215 59.7777 20.069 60.4395 19.5557C61.1012 19.0361 61.9486 18.7764 62.9814 18.7764C64.1009 18.7764 64.9977 19.0547 65.6719 19.6113C66.3522 20.1618 66.6924 20.8823 66.6924 21.7729H65.5791C65.5791 21.1854 65.3317 20.6968 64.8369 20.3071C64.3483 19.9175 63.7298 19.7227 62.9814 19.7227C62.2516 19.7227 61.6641 19.8866 61.2188 20.2144C60.7796 20.536 60.5601 20.9565 60.5601 21.4761C60.5601 21.9771 60.7425 22.3667 61.1074 22.645C61.4785 22.9172 62.1496 23.1676 63.1206 23.3965C64.0978 23.6253 64.8276 23.8696 65.3101 24.1294C65.7987 24.3892 66.1605 24.7015 66.3955 25.0664C66.6305 25.4313 66.748 25.8735 66.748 26.3931C66.748 27.2404 66.4048 27.9176 65.7183 28.4248C65.0379 28.932 64.1473 29.1855 63.0464 29.1855C61.8774 29.1855 60.9281 28.9041 60.1982 28.3413C59.4746 27.7723 59.1128 27.0549 59.1128 26.189H60.2261C60.2694 26.8384 60.5415 27.3455 61.0425 27.7104C61.5496 28.0692 62.2176 28.2485 63.0464 28.2485C63.8195 28.2485 64.4442 28.0785 64.9204 27.7383C65.3966 27.3981 65.6348 26.9683 65.6348 26.4487ZM68.9839 28.332C68.9839 28.1156 69.0519 27.9331 69.188 27.7847C69.3302 27.63 69.5251 27.5527 69.7725 27.5527C70.0199 27.5527 70.2147 27.63 70.3569 27.7847C70.4992 27.9331 70.5703 28.1156 70.5703 28.332C70.5703 28.5485 70.4992 28.7279 70.3569 28.8701C70.2147 29.0062 70.0199 29.0742 69.7725 29.0742C69.5251 29.0742 69.3302 29.0062 69.188 28.8701C69.0519 28.7279 68.9839 28.5485 68.9839 28.332ZM69.0024 19.769C69.0024 19.5526 69.0705 19.3701 69.2065 19.2217C69.3488 19.0671 69.5436 18.9897 69.791 18.9897C70.0384 18.9897 70.2332 19.0671 70.3755 19.2217C70.5177 19.3701 70.5889 19.5526 70.5889 19.769C70.5889 19.9855 70.5177 20.1649 70.3755 20.3071C70.2332 20.4432 70.0384 20.5112 69.791 20.5112C69.5436 20.5112 69.3488 20.4432 69.2065 20.3071C69.0705 20.1649 69.0024 19.9855 69.0024 19.769ZM73.0845 30.1597H72.0732L77.7139 15.4922H78.7158L73.0845 30.1597ZM78.5581 30.1597H77.5469L83.1875 15.4922H84.1895L78.5581 30.1597ZM88.6704 26.6899L88.8374 27.5527L89.0601 26.6436L91.4722 18.9619H92.4185L94.8027 26.5786L95.0625 27.6362L95.2759 26.6621L97.3354 18.9619H98.4858L95.5635 29H94.6172L92.0381 21.04L91.9175 20.4927L91.7969 21.0493L89.2642 29H88.3179L85.4048 18.9619H86.5459L88.6704 26.6899ZM102.995 26.6899L103.162 27.5527L103.384 26.6436L105.796 18.9619H106.743L109.127 26.5786L109.387 27.6362L109.6 26.6621L111.66 18.9619H112.81L109.888 29H108.941L106.362 21.04L106.242 20.4927L106.121 21.0493L103.588 29H102.642L99.729 18.9619H100.87L102.995 26.6899ZM117.319 26.6899L117.486 27.5527L117.708 26.6436L120.121 18.9619H121.067L123.451 26.5786L123.711 27.6362L123.924 26.6621L125.984 18.9619H127.134L124.212 29H123.266L120.687 21.04L120.566 20.4927L120.445 21.0493L117.913 29H116.966L114.053 18.9619H115.194L117.319 26.6899ZM127.988 28.332C127.988 28.1156 128.056 27.9331 128.192 27.7847C128.334 27.63 128.529 27.5527 128.776 27.5527C129.024 27.5527 129.219 27.63 129.361 27.7847C129.503 27.9331 129.574 28.1156 129.574 28.332C129.574 28.5485 129.503 28.7279 129.361 28.8701C129.219 29.0062 129.024 29.0742 128.776 29.0742C128.529 29.0742 128.334 29.0062 128.192 28.8701C128.056 28.7279 127.988 28.5485 127.988 28.332Z"
        fill="#9D9D9D" />
</svg>