<svg width="94" height="50" viewBox="0 0 94 50" fill="none" xmlns="http://www.w3.org/2000/svg">
    <path
        d="M91 36C91.1333 36.5333 91.2 37.2 91.2 38C91.2 38.7667 91.1333 39.4333 91 40H87C86.8667 39.4333 86.8 38.7667 86.8 38C86.8 37.2 86.8667 36.5333 87 36H85.5C85.3667 35.4333 85.3 34.7667 85.3 34C85.3 33.2 85.3667 32.5333 85.5 32H84C83.8667 31.4333 83.8 30.7667 83.8 30C83.8 29.2 83.8667 28.5333 84 28H79C79.1333 28.5333 79.2 29.2 79.2 30C79.2 30.7667 79.1333 31.4333 79 32C79.1333 32.5333 79.2 33.2 79.2 34C79.2 34.7667 79.1333 35.4333 79 36C79.1333 36.5333 79.2 37.2 79.2 38C79.2 38.7667 79.1333 39.4333 79 40H75C74.8667 39.4333 74.8 38.7667 74.8 38C74.8 37.2 74.8667 36.5333 75 36C74.8667 35.4333 74.8 34.7667 74.8 34C74.8 33.2 74.8667 32.5333 75 32C74.8667 31.4333 74.8 30.7667 74.8 30C74.8 29.2 74.8667 28.5333 75 28C74.8667 27.4333 74.8 26.7667 74.8 26C74.8 25.2 74.8667 24.5333 75 24C74.8667 23.4333 74.8 22.7667 74.8 22C74.8 21.2 74.8667 20.5333 75 20C74.8667 19.4333 74.8 18.7667 74.8 18C74.8 17.2 74.8667 16.5333 75 16C74.8667 15.4333 74.8 14.7667 74.8 14C74.8 13.2 74.8667 12.5333 75 12H89C89.1333 12.5333 89.2 13.2 89.2 14C89.2 14.7667 89.1333 15.4333 89 16H91C91.1333 16.5333 91.2 17.2 91.2 18C91.2 18.7667 91.1333 19.4333 91 20H90C90.1333 20.5333 90.2 21.2 90.2 22C90.2 22.7667 90.1333 23.4333 90 24H87C87.1333 24.5333 87.2 25.2 87.2 26C87.2 26.7667 87.1333 27.4333 87 28H88C88.1333 28.5333 88.2 29.2 88.2 30C88.2 30.7667 88.1333 31.4333 88 32H89.5C89.6333 32.5333 89.7 33.2 89.7 34C89.7 34.7667 89.6333 35.4333 89.5 36H91ZM86 24C85.8667 23.4333 85.8 22.7667 85.8 22C85.8 21.2 85.8667 20.5333 86 20C85.8667 19.4333 85.8 18.7667 85.8 18C85.8 17.2 85.8667 16.5333 86 16H79C79.1333 16.5333 79.2 17.2 79.2 18C79.2 18.7667 79.1333 19.4333 79 20C79.1333 20.5333 79.2 21.2 79.2 22C79.2 22.7667 79.1333 23.4333 79 24H86Z"
        fill="#FFB8B8" />
    <path
        d="M12.96 31.36C13.056 31.744 13.104 32.224 13.104 32.8C13.104 33.352 13.056 33.832 12.96 34.24C13.056 34.624 13.104 35.104 13.104 35.68C13.104 36.232 13.056 36.712 12.96 37.12H11.52C11.616 37.504 11.664 37.984 11.664 38.56C11.664 39.112 11.616 39.592 11.52 40H2.88C2.784 39.592 2.736 39.112 2.736 38.56C2.736 37.984 2.784 37.504 2.88 37.12H1.44C1.344 36.712 1.296 36.232 1.296 35.68C1.296 35.104 1.344 34.624 1.44 34.24H4.32C4.416 34.624 4.464 35.104 4.464 35.68C4.464 36.232 4.416 36.712 4.32 37.12H10.08C9.984 36.712 9.936 36.232 9.936 35.68C9.936 35.104 9.984 34.624 10.08 34.24C9.984 33.832 9.936 33.352 9.936 32.8C9.936 32.224 9.984 31.744 10.08 31.36H2.88C2.784 30.952 2.736 30.472 2.736 29.92C2.736 29.344 2.784 28.864 2.88 28.48H1.44C1.344 28.072 1.296 27.592 1.296 27.04C1.296 26.464 1.344 25.984 1.44 25.6C1.344 25.192 1.296 24.712 1.296 24.16C1.296 23.584 1.344 23.104 1.44 22.72H2.88C2.784 22.312 2.736 21.832 2.736 21.28C2.736 20.704 2.784 20.224 2.88 19.84H11.52C11.616 20.224 11.664 20.704 11.664 21.28C11.664 21.832 11.616 22.312 11.52 22.72H12.96C13.056 23.104 13.104 23.584 13.104 24.16C13.104 24.712 13.056 25.192 12.96 25.6H10.08C9.984 25.192 9.936 24.712 9.936 24.16C9.936 23.584 9.984 23.104 10.08 22.72H4.32C4.416 23.104 4.464 23.584 4.464 24.16C4.464 24.712 4.416 25.192 4.32 25.6C4.416 25.984 4.464 26.464 4.464 27.04C4.464 27.592 4.416 28.072 4.32 28.48H11.52C11.616 28.864 11.664 29.344 11.664 29.92C11.664 30.472 11.616 30.952 11.52 31.36H12.96ZM27.3741 34.24C27.4701 34.624 27.5181 35.104 27.5181 35.68C27.5181 36.232 27.4701 36.712 27.3741 37.12H25.9341C26.0301 37.504 26.0781 37.984 26.0781 38.56C26.0781 39.112 26.0301 39.592 25.9341 40H18.7341C18.6381 39.592 18.5901 39.112 18.5901 38.56C18.5901 37.984 18.6381 37.504 18.7341 37.12H17.2941C17.1981 36.712 17.1501 36.232 17.1501 35.68C17.1501 35.104 17.1981 34.624 17.2941 34.24H15.8541C15.7581 33.832 15.7101 33.352 15.7101 32.8C15.7101 32.224 15.7581 31.744 15.8541 31.36C15.7581 30.952 15.7101 30.472 15.7101 29.92C15.7101 29.344 15.7581 28.864 15.8541 28.48C15.7581 28.072 15.7101 27.592 15.7101 27.04C15.7101 26.464 15.7581 25.984 15.8541 25.6H17.2941C17.1981 25.192 17.1501 24.712 17.1501 24.16C17.1501 23.584 17.1981 23.104 17.2941 22.72H18.7341C18.6381 22.312 18.5901 21.832 18.5901 21.28C18.5901 20.704 18.6381 20.224 18.7341 19.84H25.9341C26.0301 20.224 26.0781 20.704 26.0781 21.28C26.0781 21.832 26.0301 22.312 25.9341 22.72H27.3741C27.4701 23.104 27.5181 23.584 27.5181 24.16C27.5181 24.712 27.4701 25.192 27.3741 25.6H24.4941C24.3981 25.192 24.3501 24.712 24.3501 24.16C24.3501 23.584 24.3981 23.104 24.4941 22.72H20.1741C20.2701 23.104 20.3181 23.584 20.3181 24.16C20.3181 24.712 20.2701 25.192 20.1741 25.6H18.7341C18.8301 25.984 18.8781 26.464 18.8781 27.04C18.8781 27.592 18.8301 28.072 18.7341 28.48C18.8301 28.864 18.8781 29.344 18.8781 29.92C18.8781 30.472 18.8301 30.952 18.7341 31.36C18.8301 31.744 18.8781 32.224 18.8781 32.8C18.8781 33.352 18.8301 33.832 18.7341 34.24H20.1741C20.2701 34.624 20.3181 35.104 20.3181 35.68C20.3181 36.232 20.2701 36.712 20.1741 37.12H24.4941C24.3981 36.712 24.3501 36.232 24.3501 35.68C24.3501 35.104 24.3981 34.624 24.4941 34.24H27.3741ZM41.7881 37.12C41.8841 37.504 41.9321 37.984 41.9321 38.56C41.9321 39.112 41.8841 39.592 41.7881 40H38.9081C38.8121 39.592 38.7641 39.112 38.7641 38.56C38.7641 37.984 38.8121 37.504 38.9081 37.12H37.8281C37.7321 36.712 37.6841 36.232 37.6841 35.68C37.6841 35.104 37.7321 34.624 37.8281 34.24H36.7481C36.6521 33.832 36.6041 33.352 36.6041 32.8C36.6041 32.224 36.6521 31.744 36.7481 31.36H33.1481C33.2441 31.744 33.2921 32.224 33.2921 32.8C33.2921 33.352 33.2441 33.832 33.1481 34.24C33.2441 34.624 33.2921 35.104 33.2921 35.68C33.2921 36.232 33.2441 36.712 33.1481 37.12C33.2441 37.504 33.2921 37.984 33.2921 38.56C33.2921 39.112 33.2441 39.592 33.1481 40H30.2681C30.1721 39.592 30.1241 39.112 30.1241 38.56C30.1241 37.984 30.1721 37.504 30.2681 37.12C30.1721 36.712 30.1241 36.232 30.1241 35.68C30.1241 35.104 30.1721 34.624 30.2681 34.24C30.1721 33.832 30.1241 33.352 30.1241 32.8C30.1241 32.224 30.1721 31.744 30.2681 31.36C30.1721 30.952 30.1241 30.472 30.1241 29.92C30.1241 29.344 30.1721 28.864 30.2681 28.48C30.1721 28.072 30.1241 27.592 30.1241 27.04C30.1241 26.464 30.1721 25.984 30.2681 25.6C30.1721 25.192 30.1241 24.712 30.1241 24.16C30.1241 23.584 30.1721 23.104 30.2681 22.72C30.1721 22.312 30.1241 21.832 30.1241 21.28C30.1241 20.704 30.1721 20.224 30.2681 19.84H40.3481C40.4441 20.224 40.4921 20.704 40.4921 21.28C40.4921 21.832 40.4441 22.312 40.3481 22.72H41.7881C41.8841 23.104 41.9321 23.584 41.9321 24.16C41.9321 24.712 41.8841 25.192 41.7881 25.6H41.0681C41.1641 25.984 41.2121 26.464 41.2121 27.04C41.2121 27.592 41.1641 28.072 41.0681 28.48H38.9081C39.0041 28.864 39.0521 29.344 39.0521 29.92C39.0521 30.472 39.0041 30.952 38.9081 31.36H39.6281C39.7241 31.744 39.7721 32.224 39.7721 32.8C39.7721 33.352 39.7241 33.832 39.6281 34.24H40.7081C40.8041 34.624 40.8521 35.104 40.8521 35.68C40.8521 36.232 40.8041 36.712 40.7081 37.12H41.7881ZM38.1881 28.48C38.0921 28.072 38.0441 27.592 38.0441 27.04C38.0441 26.464 38.0921 25.984 38.1881 25.6C38.0921 25.192 38.0441 24.712 38.0441 24.16C38.0441 23.584 38.0921 23.104 38.1881 22.72H33.1481C33.2441 23.104 33.2921 23.584 33.2921 24.16C33.2921 24.712 33.2441 25.192 33.1481 25.6C33.2441 25.984 33.2921 26.464 33.2921 27.04C33.2921 27.592 33.2441 28.072 33.1481 28.48H38.1881ZM56.3462 35.68C56.3462 36.232 56.2982 36.712 56.2022 37.12C56.2982 37.504 56.3462 37.984 56.3462 38.56C56.3462 39.112 56.2982 39.592 56.2022 40H53.3222C53.2262 39.592 53.1782 39.112 53.1782 38.56C53.1782 37.984 53.2262 37.504 53.3222 37.12C53.2262 36.712 53.1782 36.232 53.1782 35.68C53.1782 35.104 53.2262 34.624 53.3222 34.24H47.5622C47.6582 34.624 47.7062 35.104 47.7062 35.68C47.7062 36.232 47.6582 36.712 47.5622 37.12C47.6582 37.504 47.7062 37.984 47.7062 38.56C47.7062 39.112 47.6582 39.592 47.5622 40H44.6822C44.5862 39.592 44.5382 39.112 44.5382 38.56C44.5382 37.984 44.5862 37.504 44.6822 37.12C44.5862 36.712 44.5382 36.232 44.5382 35.68C44.5382 35.104 44.5862 34.624 44.6822 34.24H45.7622C45.6662 33.832 45.6182 33.352 45.6182 32.8C45.6182 32.224 45.6662 31.744 45.7622 31.36C45.6662 30.952 45.6182 30.472 45.6182 29.92C45.6182 29.344 45.6662 28.864 45.7622 28.48H46.4822C46.3862 28.072 46.3382 27.592 46.3382 27.04C46.3382 26.464 46.3862 25.984 46.4822 25.6H47.5622C47.4662 25.192 47.4182 24.712 47.4182 24.16C47.4182 23.584 47.4662 23.104 47.5622 22.72H48.2822C48.1862 22.312 48.1382 21.832 48.1382 21.28C48.1382 20.704 48.1862 20.224 48.2822 19.84H52.6022C52.6982 20.224 52.7462 20.704 52.7462 21.28C52.7462 21.832 52.6982 22.312 52.6022 22.72H53.3222C53.4182 23.104 53.4662 23.584 53.4662 24.16C53.4662 24.712 53.4182 25.192 53.3222 25.6H54.4022C54.4982 25.984 54.5462 26.464 54.5462 27.04C54.5462 27.592 54.4982 28.072 54.4022 28.48H55.1222C55.2182 28.864 55.2662 29.344 55.2662 29.92C55.2662 30.472 55.2182 30.952 55.1222 31.36C55.2182 31.744 55.2662 32.224 55.2662 32.8C55.2662 33.352 55.2182 33.832 55.1222 34.24H56.2022C56.2982 34.624 56.3462 35.104 56.3462 35.68ZM52.2422 31.36C52.1462 30.952 52.0982 30.472 52.0982 29.92C52.0982 29.344 52.1462 28.864 52.2422 28.48H51.5222C51.4262 28.072 51.3782 27.592 51.3782 27.04C51.3782 26.464 51.4262 25.984 51.5222 25.6H49.3622C49.4582 25.984 49.5062 26.464 49.5062 27.04C49.5062 27.592 49.4582 28.072 49.3622 28.48H48.6422C48.7382 28.864 48.7862 29.344 48.7862 29.92C48.7862 30.472 48.7382 30.952 48.6422 31.36H52.2422ZM70.7603 24.16C70.7603 24.712 70.7123 25.192 70.6163 25.6C70.7123 25.984 70.7603 26.464 70.7603 27.04C70.7603 27.592 70.7123 28.072 70.6163 28.48H69.1763C69.2723 28.864 69.3203 29.344 69.3203 29.92C69.3203 30.472 69.2723 30.952 69.1763 31.36H61.9763C62.0723 31.744 62.1203 32.224 62.1203 32.8C62.1203 33.352 62.0723 33.832 61.9763 34.24C62.0723 34.624 62.1203 35.104 62.1203 35.68C62.1203 36.232 62.0723 36.712 61.9763 37.12C62.0723 37.504 62.1203 37.984 62.1203 38.56C62.1203 39.112 62.0723 39.592 61.9763 40H59.0963C59.0003 39.592 58.9523 39.112 58.9523 38.56C58.9523 37.984 59.0003 37.504 59.0963 37.12C59.0003 36.712 58.9523 36.232 58.9523 35.68C58.9523 35.104 59.0003 34.624 59.0963 34.24C59.0003 33.832 58.9523 33.352 58.9523 32.8C58.9523 32.224 59.0003 31.744 59.0963 31.36C59.0003 30.952 58.9523 30.472 58.9523 29.92C58.9523 29.344 59.0003 28.864 59.0963 28.48C59.0003 28.072 58.9523 27.592 58.9523 27.04C58.9523 26.464 59.0003 25.984 59.0963 25.6C59.0003 25.192 58.9523 24.712 58.9523 24.16C58.9523 23.584 59.0003 23.104 59.0963 22.72C59.0003 22.312 58.9523 21.832 58.9523 21.28C58.9523 20.704 59.0003 20.224 59.0963 19.84H69.1763C69.2723 20.224 69.3203 20.704 69.3203 21.28C69.3203 21.832 69.2723 22.312 69.1763 22.72H70.6163C70.7123 23.104 70.7603 23.584 70.7603 24.16ZM67.7363 28.48C67.6403 28.072 67.5923 27.592 67.5923 27.04C67.5923 26.464 67.6403 25.984 67.7363 25.6C67.6403 25.192 67.5923 24.712 67.5923 24.16C67.5923 23.584 67.6403 23.104 67.7363 22.72H61.9763C62.0723 23.104 62.1203 23.584 62.1203 24.16C62.1203 24.712 62.0723 25.192 61.9763 25.6C62.0723 25.984 62.1203 26.464 62.1203 27.04C62.1203 27.592 62.0723 28.072 61.9763 28.48H67.7363Z"
        fill="#3F3D56" />
</svg>