<svg width="114" height="57" viewBox="0 0 114 57" fill="none" xmlns="http://www.w3.org/2000/svg">
    <path
        d="M94.15 11.95C99.35 11.95 103.333 12.8833 106.1 14.75C108.867 16.5833 110.25 19.45 110.25 23.35C110.25 25.7833 109.683 27.7667 108.55 29.3C107.45 30.8 105.85 31.9833 103.75 32.85C104.45 33.7167 105.183 34.7167 105.95 35.85C106.717 36.95 107.467 38.1167 108.2 39.35C108.967 40.55 109.7 41.8167 110.4 43.15C111.1 44.45 111.75 45.7333 112.35 47H103.6C102.967 45.8667 102.317 44.7167 101.65 43.55C101.017 42.3833 100.35 41.25 99.65 40.15C98.9833 39.05 98.3167 38.0167 97.65 37.05C96.9833 36.05 96.3167 35.15 95.65 34.35H91.8V47H84V12.85C85.7 12.5167 87.45 12.2833 89.25 12.15C91.0833 12.0167 92.7167 11.95 94.15 11.95ZM94.6 18.6C94.0333 18.6 93.5167 18.6167 93.05 18.65C92.6167 18.6833 92.2 18.7167 91.8 18.75V28.15H94C96.9333 28.15 99.0333 27.7833 100.3 27.05C101.567 26.3167 102.2 25.0667 102.2 23.3C102.2 21.6 101.55 20.4 100.25 19.7C98.9833 18.9667 97.1 18.6 94.6 18.6Z"
        fill="#FFB8B8" />
    <path
        d="M9.684 39.716C10.476 39.716 11.124 39.656 11.628 39.536C12.156 39.392 12.576 39.212 12.888 38.996C13.2 38.756 13.416 38.48 13.536 38.168C13.656 37.856 13.716 37.508 13.716 37.124C13.716 36.308 13.332 35.636 12.564 35.108C11.796 34.556 10.476 33.968 8.604 33.344C7.788 33.056 6.972 32.732 6.156 32.372C5.34 31.988 4.608 31.52 3.96 30.968C3.312 30.392 2.784 29.708 2.376 28.916C1.968 28.1 1.764 27.116 1.764 25.964C1.764 24.812 1.98 23.78 2.412 22.868C2.844 21.932 3.456 21.14 4.248 20.492C5.04 19.844 6 19.352 7.128 19.016C8.256 18.656 9.528 18.476 10.944 18.476C12.624 18.476 14.076 18.656 15.3 19.016C16.524 19.376 17.532 19.772 18.324 20.204L16.704 24.632C16.008 24.272 15.228 23.96 14.364 23.696C13.524 23.408 12.504 23.264 11.304 23.264C9.96 23.264 8.988 23.456 8.388 23.84C7.812 24.2 7.524 24.764 7.524 25.532C7.524 25.988 7.632 26.372 7.848 26.684C8.064 26.996 8.364 27.284 8.748 27.548C9.156 27.788 9.612 28.016 10.116 28.232C10.644 28.424 11.22 28.628 11.844 28.844C13.14 29.324 14.268 29.804 15.228 30.284C16.188 30.74 16.98 31.28 17.604 31.904C18.252 32.528 18.732 33.26 19.044 34.1C19.356 34.94 19.512 35.96 19.512 37.16C19.512 39.488 18.696 41.3 17.064 42.596C15.432 43.868 12.972 44.504 9.684 44.504C8.58 44.504 7.584 44.432 6.696 44.288C5.808 44.168 5.016 44.012 4.32 43.82C3.648 43.628 3.06 43.424 2.556 43.208C2.076 42.992 1.668 42.788 1.332 42.596L2.916 38.132C3.66 38.54 4.572 38.912 5.652 39.248C6.756 39.56 8.1 39.716 9.684 39.716ZM35.2091 44.504C31.1531 44.504 28.0571 43.376 25.9211 41.12C23.8091 38.864 22.7531 35.66 22.7531 31.508C22.7531 29.444 23.0771 27.608 23.7251 26C24.3731 24.368 25.2611 23 26.3891 21.896C27.5171 20.768 28.8611 19.916 30.4211 19.34C31.9811 18.764 33.6731 18.476 35.4971 18.476C36.5531 18.476 37.5131 18.56 38.3771 18.728C39.2411 18.872 39.9971 19.052 40.6451 19.268C41.2931 19.46 41.8331 19.664 42.2651 19.88C42.6971 20.096 43.0091 20.264 43.2011 20.384L41.5811 24.92C40.8131 24.512 39.9131 24.164 38.8811 23.876C37.8731 23.588 36.7211 23.444 35.4251 23.444C34.5611 23.444 33.7091 23.588 32.8691 23.876C32.0531 24.164 31.3211 24.632 30.6731 25.28C30.0491 25.904 29.5451 26.72 29.1611 27.728C28.7771 28.736 28.5851 29.96 28.5851 31.4C28.5851 32.552 28.7051 33.632 28.9451 34.64C29.2091 35.624 29.6171 36.476 30.1691 37.196C30.7451 37.916 31.4891 38.492 32.4011 38.924C33.3131 39.332 34.4171 39.536 35.7131 39.536C36.5291 39.536 37.2611 39.488 37.9091 39.392C38.5571 39.296 39.1331 39.188 39.6371 39.068C40.1411 38.924 40.5851 38.768 40.9691 38.6C41.3531 38.432 41.7011 38.276 42.0131 38.132L43.5611 42.632C42.7691 43.112 41.6531 43.544 40.2131 43.928C38.7731 44.312 37.1051 44.504 35.2091 44.504ZM54.4849 18.764C58.2289 18.764 61.0969 19.436 63.0889 20.78C65.0809 22.1 66.0769 24.164 66.0769 26.972C66.0769 28.724 65.6689 30.152 64.8529 31.256C64.0609 32.336 62.9089 33.188 61.3969 33.812C61.9009 34.436 62.4289 35.156 62.9809 35.972C63.5329 36.764 64.0729 37.604 64.6009 38.492C65.1529 39.356 65.6809 40.268 66.1849 41.228C66.6889 42.164 67.1569 43.088 67.5889 44H61.2889C60.8329 43.184 60.3649 42.356 59.8849 41.516C59.4289 40.676 58.9489 39.86 58.4449 39.068C57.9649 38.276 57.4849 37.532 57.0049 36.836C56.5249 36.116 56.0449 35.468 55.5649 34.892H52.7929V44H47.1769V19.412C48.4009 19.172 49.6609 19.004 50.9569 18.908C52.2769 18.812 53.4529 18.764 54.4849 18.764ZM54.8089 23.552C54.4009 23.552 54.0289 23.564 53.6929 23.588C53.3809 23.612 53.0809 23.636 52.7929 23.66V30.428H54.3769C56.4889 30.428 58.0009 30.164 58.9129 29.636C59.8249 29.108 60.2809 28.208 60.2809 26.936C60.2809 25.712 59.8129 24.848 58.8769 24.344C57.9649 23.816 56.6089 23.552 54.8089 23.552ZM78.6766 18.764C82.3966 18.764 85.2526 19.424 87.2446 20.744C89.2366 22.04 90.2326 24.176 90.2326 27.152C90.2326 30.152 89.2246 32.324 87.2086 33.668C85.1926 34.988 82.3126 35.648 78.5686 35.648H76.8046V44H71.1886V19.412C72.4126 19.172 73.7086 19.004 75.0766 18.908C76.4446 18.812 77.6446 18.764 78.6766 18.764ZM79.0366 23.552C78.6286 23.552 78.2206 23.564 77.8126 23.588C77.4286 23.612 77.0926 23.636 76.8046 23.66V30.86H78.5686C80.5126 30.86 81.9766 30.596 82.9606 30.068C83.9446 29.54 84.4366 28.556 84.4366 27.116C84.4366 26.42 84.3046 25.844 84.0406 25.388C83.8006 24.932 83.4406 24.572 82.9606 24.308C82.5046 24.02 81.9406 23.828 81.2686 23.732C80.5966 23.612 79.8526 23.552 79.0366 23.552Z"
        fill="#3F3D56" />
</svg>