<svg width="143" height="57" viewBox="0 0 143 57" fill="none" xmlns="http://www.w3.org/2000/svg">
    <path
        d="M142 42C142.133 42.5333 142.2 43.2 142.2 44C142.2 44.7667 142.133 45.4333 142 46H138C137.867 45.4333 137.8 44.7667 137.8 44C137.8 43.2 137.867 42.5333 138 42H136.5C136.367 41.4333 136.3 40.7667 136.3 40C136.3 39.2 136.367 38.5333 136.5 38H135C134.867 37.4333 134.8 36.7667 134.8 36C134.8 35.2 134.867 34.5333 135 34H130C130.133 34.5333 130.2 35.2 130.2 36C130.2 36.7667 130.133 37.4333 130 38C130.133 38.5333 130.2 39.2 130.2 40C130.2 40.7667 130.133 41.4333 130 42C130.133 42.5333 130.2 43.2 130.2 44C130.2 44.7667 130.133 45.4333 130 46H126C125.867 45.4333 125.8 44.7667 125.8 44C125.8 43.2 125.867 42.5333 126 42C125.867 41.4333 125.8 40.7667 125.8 40C125.8 39.2 125.867 38.5333 126 38C125.867 37.4333 125.8 36.7667 125.8 36C125.8 35.2 125.867 34.5333 126 34C125.867 33.4333 125.8 32.7667 125.8 32C125.8 31.2 125.867 30.5333 126 30C125.867 29.4333 125.8 28.7667 125.8 28C125.8 27.2 125.867 26.5333 126 26C125.867 25.4333 125.8 24.7667 125.8 24C125.8 23.2 125.867 22.5333 126 22C125.867 21.4333 125.8 20.7667 125.8 20C125.8 19.2 125.867 18.5333 126 18H140C140.133 18.5333 140.2 19.2 140.2 20C140.2 20.7667 140.133 21.4333 140 22H142C142.133 22.5333 142.2 23.2 142.2 24C142.2 24.7667 142.133 25.4333 142 26H141C141.133 26.5333 141.2 27.2 141.2 28C141.2 28.7667 141.133 29.4333 141 30H138C138.133 30.5333 138.2 31.2 138.2 32C138.2 32.7667 138.133 33.4333 138 34H139C139.133 34.5333 139.2 35.2 139.2 36C139.2 36.7667 139.133 37.4333 139 38H140.5C140.633 38.5333 140.7 39.2 140.7 40C140.7 40.7667 140.633 41.4333 140.5 42H142ZM137 30C136.867 29.4333 136.8 28.7667 136.8 28C136.8 27.2 136.867 26.5333 137 26C136.867 25.4333 136.8 24.7667 136.8 24C136.8 23.2 136.867 22.5333 137 22H130C130.133 22.5333 130.2 23.2 130.2 24C130.2 24.7667 130.133 25.4333 130 26C130.133 26.5333 130.2 27.2 130.2 28C130.2 28.7667 130.133 29.4333 130 30H137Z"
        fill="#FFB8B8" />
    <path
        d="M63.96 37.36C64.056 37.744 64.104 38.224 64.104 38.8C64.104 39.352 64.056 39.832 63.96 40.24C64.056 40.624 64.104 41.104 64.104 41.68C64.104 42.232 64.056 42.712 63.96 43.12H62.52C62.616 43.504 62.664 43.984 62.664 44.56C62.664 45.112 62.616 45.592 62.52 46H53.88C53.784 45.592 53.736 45.112 53.736 44.56C53.736 43.984 53.784 43.504 53.88 43.12H52.44C52.344 42.712 52.296 42.232 52.296 41.68C52.296 41.104 52.344 40.624 52.44 40.24H55.32C55.416 40.624 55.464 41.104 55.464 41.68C55.464 42.232 55.416 42.712 55.32 43.12H61.08C60.984 42.712 60.936 42.232 60.936 41.68C60.936 41.104 60.984 40.624 61.08 40.24C60.984 39.832 60.936 39.352 60.936 38.8C60.936 38.224 60.984 37.744 61.08 37.36H53.88C53.784 36.952 53.736 36.472 53.736 35.92C53.736 35.344 53.784 34.864 53.88 34.48H52.44C52.344 34.072 52.296 33.592 52.296 33.04C52.296 32.464 52.344 31.984 52.44 31.6C52.344 31.192 52.296 30.712 52.296 30.16C52.296 29.584 52.344 29.104 52.44 28.72H53.88C53.784 28.312 53.736 27.832 53.736 27.28C53.736 26.704 53.784 26.224 53.88 25.84H62.52C62.616 26.224 62.664 26.704 62.664 27.28C62.664 27.832 62.616 28.312 62.52 28.72H63.96C64.056 29.104 64.104 29.584 64.104 30.16C64.104 30.712 64.056 31.192 63.96 31.6H61.08C60.984 31.192 60.936 30.712 60.936 30.16C60.936 29.584 60.984 29.104 61.08 28.72H55.32C55.416 29.104 55.464 29.584 55.464 30.16C55.464 30.712 55.416 31.192 55.32 31.6C55.416 31.984 55.464 32.464 55.464 33.04C55.464 33.592 55.416 34.072 55.32 34.48H62.52C62.616 34.864 62.664 35.344 62.664 35.92C62.664 36.472 62.616 36.952 62.52 37.36H63.96ZM78.3741 40.24C78.4701 40.624 78.5181 41.104 78.5181 41.68C78.5181 42.232 78.4701 42.712 78.3741 43.12H76.9341C77.0301 43.504 77.0781 43.984 77.0781 44.56C77.0781 45.112 77.0301 45.592 76.9341 46H69.7341C69.6381 45.592 69.5901 45.112 69.5901 44.56C69.5901 43.984 69.6381 43.504 69.7341 43.12H68.2941C68.1981 42.712 68.1501 42.232 68.1501 41.68C68.1501 41.104 68.1981 40.624 68.2941 40.24H66.8541C66.7581 39.832 66.7101 39.352 66.7101 38.8C66.7101 38.224 66.7581 37.744 66.8541 37.36C66.7581 36.952 66.7101 36.472 66.7101 35.92C66.7101 35.344 66.7581 34.864 66.8541 34.48C66.7581 34.072 66.7101 33.592 66.7101 33.04C66.7101 32.464 66.7581 31.984 66.8541 31.6H68.2941C68.1981 31.192 68.1501 30.712 68.1501 30.16C68.1501 29.584 68.1981 29.104 68.2941 28.72H69.7341C69.6381 28.312 69.5901 27.832 69.5901 27.28C69.5901 26.704 69.6381 26.224 69.7341 25.84H76.9341C77.0301 26.224 77.0781 26.704 77.0781 27.28C77.0781 27.832 77.0301 28.312 76.9341 28.72H78.3741C78.4701 29.104 78.5181 29.584 78.5181 30.16C78.5181 30.712 78.4701 31.192 78.3741 31.6H75.4941C75.3981 31.192 75.3501 30.712 75.3501 30.16C75.3501 29.584 75.3981 29.104 75.4941 28.72H71.1741C71.2701 29.104 71.3181 29.584 71.3181 30.16C71.3181 30.712 71.2701 31.192 71.1741 31.6H69.7341C69.8301 31.984 69.8781 32.464 69.8781 33.04C69.8781 33.592 69.8301 34.072 69.7341 34.48C69.8301 34.864 69.8781 35.344 69.8781 35.92C69.8781 36.472 69.8301 36.952 69.7341 37.36C69.8301 37.744 69.8781 38.224 69.8781 38.8C69.8781 39.352 69.8301 39.832 69.7341 40.24H71.1741C71.2701 40.624 71.3181 41.104 71.3181 41.68C71.3181 42.232 71.2701 42.712 71.1741 43.12H75.4941C75.3981 42.712 75.3501 42.232 75.3501 41.68C75.3501 41.104 75.3981 40.624 75.4941 40.24H78.3741ZM92.7881 43.12C92.8841 43.504 92.9321 43.984 92.9321 44.56C92.9321 45.112 92.8841 45.592 92.7881 46H89.9081C89.8121 45.592 89.7641 45.112 89.7641 44.56C89.7641 43.984 89.8121 43.504 89.9081 43.12H88.8281C88.7321 42.712 88.6841 42.232 88.6841 41.68C88.6841 41.104 88.7321 40.624 88.8281 40.24H87.7481C87.6521 39.832 87.6041 39.352 87.6041 38.8C87.6041 38.224 87.6521 37.744 87.7481 37.36H84.1481C84.2441 37.744 84.2921 38.224 84.2921 38.8C84.2921 39.352 84.2441 39.832 84.1481 40.24C84.2441 40.624 84.2921 41.104 84.2921 41.68C84.2921 42.232 84.2441 42.712 84.1481 43.12C84.2441 43.504 84.2921 43.984 84.2921 44.56C84.2921 45.112 84.2441 45.592 84.1481 46H81.2681C81.1721 45.592 81.1241 45.112 81.1241 44.56C81.1241 43.984 81.1721 43.504 81.2681 43.12C81.1721 42.712 81.1241 42.232 81.1241 41.68C81.1241 41.104 81.1721 40.624 81.2681 40.24C81.1721 39.832 81.1241 39.352 81.1241 38.8C81.1241 38.224 81.1721 37.744 81.2681 37.36C81.1721 36.952 81.1241 36.472 81.1241 35.92C81.1241 35.344 81.1721 34.864 81.2681 34.48C81.1721 34.072 81.1241 33.592 81.1241 33.04C81.1241 32.464 81.1721 31.984 81.2681 31.6C81.1721 31.192 81.1241 30.712 81.1241 30.16C81.1241 29.584 81.1721 29.104 81.2681 28.72C81.1721 28.312 81.1241 27.832 81.1241 27.28C81.1241 26.704 81.1721 26.224 81.2681 25.84H91.3481C91.4441 26.224 91.4921 26.704 91.4921 27.28C91.4921 27.832 91.4441 28.312 91.3481 28.72H92.7881C92.8841 29.104 92.9321 29.584 92.9321 30.16C92.9321 30.712 92.8841 31.192 92.7881 31.6H92.0681C92.1641 31.984 92.2121 32.464 92.2121 33.04C92.2121 33.592 92.1641 34.072 92.0681 34.48H89.9081C90.0041 34.864 90.0521 35.344 90.0521 35.92C90.0521 36.472 90.0041 36.952 89.9081 37.36H90.6281C90.7241 37.744 90.7721 38.224 90.7721 38.8C90.7721 39.352 90.7241 39.832 90.6281 40.24H91.7081C91.8041 40.624 91.8521 41.104 91.8521 41.68C91.8521 42.232 91.8041 42.712 91.7081 43.12H92.7881ZM89.1881 34.48C89.0921 34.072 89.0441 33.592 89.0441 33.04C89.0441 32.464 89.0921 31.984 89.1881 31.6C89.0921 31.192 89.0441 30.712 89.0441 30.16C89.0441 29.584 89.0921 29.104 89.1881 28.72H84.1481C84.2441 29.104 84.2921 29.584 84.2921 30.16C84.2921 30.712 84.2441 31.192 84.1481 31.6C84.2441 31.984 84.2921 32.464 84.2921 33.04C84.2921 33.592 84.2441 34.072 84.1481 34.48H89.1881ZM107.346 41.68C107.346 42.232 107.298 42.712 107.202 43.12C107.298 43.504 107.346 43.984 107.346 44.56C107.346 45.112 107.298 45.592 107.202 46H104.322C104.226 45.592 104.178 45.112 104.178 44.56C104.178 43.984 104.226 43.504 104.322 43.12C104.226 42.712 104.178 42.232 104.178 41.68C104.178 41.104 104.226 40.624 104.322 40.24H98.5622C98.6582 40.624 98.7062 41.104 98.7062 41.68C98.7062 42.232 98.6582 42.712 98.5622 43.12C98.6582 43.504 98.7062 43.984 98.7062 44.56C98.7062 45.112 98.6582 45.592 98.5622 46H95.6822C95.5862 45.592 95.5382 45.112 95.5382 44.56C95.5382 43.984 95.5862 43.504 95.6822 43.12C95.5862 42.712 95.5382 42.232 95.5382 41.68C95.5382 41.104 95.5862 40.624 95.6822 40.24H96.7622C96.6662 39.832 96.6182 39.352 96.6182 38.8C96.6182 38.224 96.6662 37.744 96.7622 37.36C96.6662 36.952 96.6182 36.472 96.6182 35.92C96.6182 35.344 96.6662 34.864 96.7622 34.48H97.4822C97.3862 34.072 97.3382 33.592 97.3382 33.04C97.3382 32.464 97.3862 31.984 97.4822 31.6H98.5622C98.4662 31.192 98.4182 30.712 98.4182 30.16C98.4182 29.584 98.4662 29.104 98.5622 28.72H99.2822C99.1862 28.312 99.1382 27.832 99.1382 27.28C99.1382 26.704 99.1862 26.224 99.2822 25.84H103.602C103.698 26.224 103.746 26.704 103.746 27.28C103.746 27.832 103.698 28.312 103.602 28.72H104.322C104.418 29.104 104.466 29.584 104.466 30.16C104.466 30.712 104.418 31.192 104.322 31.6H105.402C105.498 31.984 105.546 32.464 105.546 33.04C105.546 33.592 105.498 34.072 105.402 34.48H106.122C106.218 34.864 106.266 35.344 106.266 35.92C106.266 36.472 106.218 36.952 106.122 37.36C106.218 37.744 106.266 38.224 106.266 38.8C106.266 39.352 106.218 39.832 106.122 40.24H107.202C107.298 40.624 107.346 41.104 107.346 41.68ZM103.242 37.36C103.146 36.952 103.098 36.472 103.098 35.92C103.098 35.344 103.146 34.864 103.242 34.48H102.522C102.426 34.072 102.378 33.592 102.378 33.04C102.378 32.464 102.426 31.984 102.522 31.6H100.362C100.458 31.984 100.506 32.464 100.506 33.04C100.506 33.592 100.458 34.072 100.362 34.48H99.6422C99.7382 34.864 99.7862 35.344 99.7862 35.92C99.7862 36.472 99.7382 36.952 99.6422 37.36H103.242ZM121.76 30.16C121.76 30.712 121.712 31.192 121.616 31.6C121.712 31.984 121.76 32.464 121.76 33.04C121.76 33.592 121.712 34.072 121.616 34.48H120.176C120.272 34.864 120.32 35.344 120.32 35.92C120.32 36.472 120.272 36.952 120.176 37.36H112.976C113.072 37.744 113.12 38.224 113.12 38.8C113.12 39.352 113.072 39.832 112.976 40.24C113.072 40.624 113.12 41.104 113.12 41.68C113.12 42.232 113.072 42.712 112.976 43.12C113.072 43.504 113.12 43.984 113.12 44.56C113.12 45.112 113.072 45.592 112.976 46H110.096C110 45.592 109.952 45.112 109.952 44.56C109.952 43.984 110 43.504 110.096 43.12C110 42.712 109.952 42.232 109.952 41.68C109.952 41.104 110 40.624 110.096 40.24C110 39.832 109.952 39.352 109.952 38.8C109.952 38.224 110 37.744 110.096 37.36C110 36.952 109.952 36.472 109.952 35.92C109.952 35.344 110 34.864 110.096 34.48C110 34.072 109.952 33.592 109.952 33.04C109.952 32.464 110 31.984 110.096 31.6C110 31.192 109.952 30.712 109.952 30.16C109.952 29.584 110 29.104 110.096 28.72C110 28.312 109.952 27.832 109.952 27.28C109.952 26.704 110 26.224 110.096 25.84H120.176C120.272 26.224 120.32 26.704 120.32 27.28C120.32 27.832 120.272 28.312 120.176 28.72H121.616C121.712 29.104 121.76 29.584 121.76 30.16ZM118.736 34.48C118.64 34.072 118.592 33.592 118.592 33.04C118.592 32.464 118.64 31.984 118.736 31.6C118.64 31.192 118.592 30.712 118.592 30.16C118.592 29.584 118.64 29.104 118.736 28.72H112.976C113.072 29.104 113.12 29.584 113.12 30.16C113.12 30.712 113.072 31.192 112.976 31.6C113.072 31.984 113.12 32.464 113.12 33.04C113.12 33.592 113.072 34.072 112.976 34.48H118.736Z"
        fill="#3F3D56" />
</svg>