<svg viewBox="0 0 627 458" fill="none" xmlns="http://www.w3.org/2000/svg">
    <g clip-path="url(#clip0_2_222)">
        <path
            d="M167.361 345.727C256.279 345.727 328.361 273.645 328.361 184.727C328.361 95.809 256.279 23.7268 167.361 23.7268C78.4435 23.7268 6.36133 95.809 6.36133 184.727C6.36133 273.645 78.4435 345.727 167.361 345.727Z"
            fill="#FFB8B8" />
        <path
            d="M432.931 182.081L397.535 212.509L342.06 260.181L334.562 266.628C333.875 267.212 333.312 267.927 332.904 268.731C332.497 269.535 332.253 270.412 332.187 271.311C332.09 272.616 332.366 273.922 332.984 275.076C333.219 275.511 333.501 275.919 333.824 276.293L337.846 280.977L343.969 288.099C344.082 288.225 344.188 288.343 344.309 288.462C345.532 289.686 347.173 290.404 348.902 290.471C350.631 290.537 352.322 289.948 353.636 288.822L416.542 234.77L452.012 204.283C453.387 203.095 454.236 201.411 454.371 199.599C454.507 197.787 453.918 195.995 452.734 194.616L450.594 192.127L442.596 182.818C442.011 182.134 441.296 181.572 440.493 181.165C439.69 180.757 438.814 180.512 437.917 180.444C437.019 180.375 436.116 180.485 435.261 180.766C434.405 181.046 433.614 181.493 432.931 182.081V182.081Z"
            fill="#9CF6F6" />
        <path
            d="M459.906 156.48C491.073 156.48 516.338 131.214 516.338 100.048C516.338 68.8814 491.073 43.6161 459.906 43.6161C428.74 43.6161 403.475 68.8814 403.475 100.048C403.475 131.214 428.74 156.48 459.906 156.48Z"
            fill="#9CF6F6" />
        <path
            d="M464.053 319.191V448.895C464.055 450.712 464.778 452.454 466.062 453.739C467.347 455.024 469.09 455.747 470.907 455.749H486.47C488.287 455.747 490.029 455.024 491.314 453.739C492.599 452.454 493.322 450.712 493.324 448.895V319.191C493.322 317.373 492.599 315.631 491.314 314.346C490.029 313.061 488.287 312.339 486.47 312.337H470.907C469.09 312.339 467.347 313.061 466.062 314.346C464.778 315.631 464.055 317.373 464.053 319.191Z"
            fill="#2F2E41" />
        <path
            d="M431.166 319.191V448.895C431.166 449.795 431.343 450.686 431.688 451.518C432.032 452.349 432.537 453.105 433.173 453.741C433.81 454.378 434.565 454.883 435.397 455.227C436.228 455.571 437.12 455.749 438.02 455.749H453.583C455.4 455.747 457.142 455.024 458.427 453.739C459.712 452.454 460.435 450.712 460.436 448.895V319.191C460.435 317.373 459.712 315.631 458.427 314.346C457.142 313.061 455.4 312.339 453.583 312.337H438.02C437.12 312.337 436.228 312.514 435.397 312.858C434.565 313.203 433.81 313.708 433.173 314.344C432.537 314.981 432.032 315.736 431.688 316.568C431.343 317.399 431.166 318.29 431.166 319.191Z"
            fill="#2F2E41" />
        <path
            d="M412.251 124.994L412.31 122.885C408.387 122.776 404.928 122.529 402.329 120.631C401.592 120.062 400.986 119.341 400.553 118.517C400.12 117.693 399.869 116.785 399.818 115.856C399.772 115.288 399.858 114.717 400.069 114.188C400.28 113.659 400.61 113.185 401.033 112.804C402.759 111.347 405.535 111.819 407.558 112.746L409.303 113.546L405.957 89.0939L403.868 89.3801L406.714 110.18C403.965 109.372 401.417 109.72 399.672 111.193C399.002 111.778 398.477 112.51 398.136 113.332C397.796 114.154 397.65 115.043 397.711 115.93C397.772 117.179 398.106 118.399 398.689 119.505C399.272 120.612 400.09 121.577 401.085 122.334C404.424 124.774 408.764 124.896 412.251 124.994Z"
            fill="#2F2E41" />
        <path d="M429.385 91.1738H418.028V93.2827H429.385V91.1738Z" fill="#2F2E41" />
        <path
            d="M474.65 192.618L476.59 239.255L479.616 312.337L480.028 322.217C480.061 323.118 480.273 324.003 480.651 324.821C481.029 325.639 481.567 326.374 482.231 326.983C483.195 327.868 484.391 328.46 485.679 328.691C486.166 328.776 486.661 328.808 487.155 328.786L493.324 328.533L502.708 328.143C502.877 328.132 503.035 328.122 503.204 328.1C504.923 327.9 506.503 327.057 507.627 325.741C508.751 324.425 509.337 322.733 509.267 321.004L505.84 238.137L503.9 191.405C503.82 189.59 503.024 187.88 501.686 186.651C500.348 185.421 498.577 184.773 496.761 184.847L493.482 184.984L481.219 185.49C480.319 185.526 479.436 185.738 478.618 186.116C477.801 186.494 477.066 187.029 476.456 187.691C475.845 188.353 475.372 189.129 475.062 189.975C474.752 190.82 474.612 191.718 474.65 192.618L474.65 192.618Z"
            fill="#9CF6F6" />
        <path
            d="M469.916 196.561V232.412C469.917 234.197 470.615 235.912 471.862 237.19C473.109 238.468 474.805 239.209 476.59 239.255C476.65 239.264 476.71 239.268 476.77 239.265H502.076C502.483 239.264 502.889 239.226 503.288 239.149C504.199 238.99 505.068 238.646 505.84 238.137C506.787 237.512 507.565 236.661 508.104 235.663C508.643 234.664 508.927 233.547 508.93 232.412V196.561C508.923 191.39 506.866 186.432 503.209 182.775C499.552 179.118 494.594 177.061 489.423 177.055C488.083 177.051 486.747 177.189 485.437 177.466C481.053 178.387 477.118 180.787 474.292 184.263C471.467 187.74 469.922 192.081 469.916 196.561Z"
            fill="#2F2E41" />
        <path
            d="M395.98 211.524C396.241 212.375 396.667 213.167 397.234 213.854L413.262 233.435C413.548 233.797 413.877 234.122 414.242 234.405C415.467 235.403 416.998 235.947 418.578 235.945C420.157 235.943 421.688 235.395 422.91 234.394L450.652 211.692C454.655 208.415 457.192 203.681 457.705 198.533C458.218 193.385 456.665 188.244 453.388 184.24C451.765 182.258 449.767 180.615 447.509 179.405C445.251 178.195 442.777 177.441 440.228 177.187C435.08 176.674 429.939 178.227 425.935 181.504L398.194 204.206C397.144 205.071 396.373 206.227 395.979 207.53C395.585 208.832 395.585 210.222 395.98 211.524Z"
            fill="#2F2E41" />
        <path
            d="M443.25 66.6188C442.864 68.7535 441.697 70.6679 439.976 71.989C438.255 73.3101 436.104 73.9432 433.942 73.765C431.78 73.5867 429.762 72.6099 428.281 71.0248C426.8 69.4398 425.962 67.36 425.93 65.1908C425.919 64.8347 425.781 64.4942 425.542 64.2298C425.304 63.9654 424.979 63.7941 424.626 63.7463C424.273 63.6985 423.914 63.7773 423.613 63.9688C423.313 64.1602 423.09 64.4519 422.984 64.7921C420.918 70.1059 415.608 73.7415 410.056 74.5209C407.124 74.8704 404.152 74.4158 401.459 73.2057C398.765 71.9956 396.452 70.0756 394.766 67.6514C392.989 65.2417 391.844 62.425 391.437 59.4588C391.03 56.4925 391.372 53.4715 392.434 50.672C393.529 47.834 395.249 45.2794 397.468 43.1985C399.687 41.1176 402.346 39.5641 405.249 38.6535C408.726 37.6451 412.403 37.5439 415.931 38.3594C419.458 39.175 422.718 40.8801 425.399 43.3125C425.587 43.4941 425.818 43.6242 426.07 43.6902C426.322 43.7563 426.588 43.756 426.84 43.6894C427.092 43.6228 427.323 43.4922 427.51 43.3102C427.697 43.1282 427.833 42.9009 427.906 42.6506C430.725 27.7532 440.861 14.8118 454.306 7.93965C468.047 0.916564 484.431 1.55344 498.019 8.64693C504.791 12.1251 510.656 17.1378 515.148 23.285C520.455 30.6904 523.182 39.4617 525.745 48.1C530.232 63.2226 535.8 81.3368 551.721 88.0512C555.997 89.8312 560.646 90.5295 565.257 90.0845C569.867 89.6395 574.296 88.0649 578.153 85.4999C582.01 82.935 585.175 79.4588 587.367 75.3791C589.56 71.2995 590.714 66.7421 590.726 62.1105C590.712 61.7216 590.548 61.3532 590.268 61.0829C589.988 60.8126 589.615 60.6615 589.226 60.6615C588.836 60.6615 588.463 60.8126 588.183 61.0829C587.903 61.3532 587.739 61.7216 587.726 62.1105C587.741 66.2237 586.744 70.2776 584.823 73.9149C582.903 77.5522 580.117 80.6614 576.712 82.9685C573.306 85.2755 569.386 86.7097 565.295 87.1446C561.205 87.5795 557.071 87.0018 553.256 85.4624C545.876 82.5275 540.535 76.1515 536.817 69.3435C532.643 61.6999 530.443 53.2579 527.942 44.9721C525.396 36.5368 522.448 28.01 517.096 20.8968C512.49 14.805 506.604 9.79691 499.854 6.22528C486.215 -1.0139 469.947 -2.1727 455.698 3.98069C448.786 7.01398 442.597 11.4788 437.538 17.0804C432.479 22.6819 428.666 29.2928 426.35 36.4767C425.801 38.2414 425.354 40.0366 425.014 41.8531L427.521 41.1912C424.785 38.6969 421.517 36.858 417.965 35.8138C414.413 34.7696 410.67 34.5475 407.019 35.1643C403.503 35.8095 400.186 37.2637 397.328 39.4118C394.471 41.56 392.153 44.3433 390.556 47.5417C388.955 50.6797 388.175 54.1718 388.287 57.6928C388.399 61.2138 389.401 64.649 391.199 67.6784C394.748 73.6347 401.171 77.8201 408.222 77.662C412.021 77.5898 415.717 76.4087 418.853 74.2638C421.99 72.1189 424.431 69.1039 425.877 65.5896L422.93 65.1909C422.964 68.0837 424.066 70.8619 426.024 72.9916C427.981 75.1213 430.658 76.4521 433.537 76.7282C436.417 77.0043 439.297 76.2062 441.624 74.4873C443.951 72.7684 445.56 70.25 446.143 67.4163C446.547 65.5337 443.656 64.7292 443.25 66.6188V66.6188Z"
            fill="#2F2E41" />
        <path d="M516.361 341.727H403.361L439.361 182.727H478.361L516.361 341.727Z" fill="#2F2E41" />
        <path
            d="M262.025 334.025C282.693 333.439 302.668 325.506 318.675 312.528C334.966 299.465 346.266 281.193 350.677 260.782C354.889 239.985 352.184 218.382 342.974 199.266C333.742 180.272 318.127 165.127 298.859 156.479C279.811 147.783 258.447 145.534 238.005 150.072C235.451 150.663 232.928 151.376 230.437 152.193C228.161 152.941 229.136 156.553 231.431 155.799C250.547 149.525 271.462 150.275 290.345 157.037C309.398 163.746 325.529 176.864 335.983 194.148C346.362 211.788 350.67 232.345 348.245 252.668C345.754 272.566 336.424 290.979 321.854 304.758C307.625 318.347 288.926 327.573 269.309 329.782C266.889 330.055 264.459 330.217 262.025 330.286C259.623 330.354 259.614 334.094 262.025 334.025Z"
            fill="#3F3D56" />
        <path
            d="M226.235 117.199L192.655 145.75C190.459 147.617 187.855 149.543 187.262 152.548C187.082 153.818 187.228 155.113 187.687 156.31C188.146 157.508 188.902 158.569 189.884 159.394C192.064 161.467 194.84 162.785 197.448 164.219L207.208 169.585L228.896 181.51C231.006 182.671 232.895 179.443 230.783 178.282C219.031 171.82 207.103 165.598 195.5 158.872C193.743 157.854 190.98 156.208 190.875 153.895C190.763 151.417 194.145 149.376 195.772 147.992L211.379 134.722L228.879 119.843C230.715 118.282 228.059 115.648 226.235 117.199V117.199Z"
            fill="#3F3D56" />
        <path
            d="M95.937 43.2791C70.7815 47.5609 47.7398 60.7 30.4182 79.3201C12.9607 98.0864 1.88891 122.424 0.236453 148.075C-1.32365 174.215 5.70855 200.148 20.2606 221.919C34.8193 243.538 56.5132 259.352 81.5497 266.596C106.154 273.776 133.028 273.159 157.019 263.928C160.039 262.766 162.999 261.459 165.902 260.031C168.554 258.725 166.74 254.479 164.065 255.796C141.788 266.76 116.1 269.452 91.8586 264.445C67.5371 259.422 45.2823 246.372 29.6863 226.968C13.9604 207.202 5.15084 182.824 4.60813 157.571C4.22051 132.826 12.4447 108.715 27.8733 89.3645C42.9175 70.3043 64.1761 55.8041 87.7673 49.7203C90.6778 48.9697 93.6192 48.3529 96.582 47.8486C99.5045 47.3512 98.8715 42.7797 95.937 43.2792L95.937 43.2791Z"
            fill="#3F3D56" />
        <path
            d="M177.073 302.069L213.183 261.387C215.544 258.727 218.394 255.924 218.601 252.15C218.781 248.852 216.8 246.082 214.215 244.237C211.194 242.079 207.575 240.948 204.14 239.645L191.288 234.771L162.728 223.939C159.949 222.885 158.198 227.156 160.978 228.21C176.455 234.08 192.103 239.626 207.443 245.843C209.766 246.784 213.425 248.318 213.952 251.127C214.517 254.136 210.737 257.214 208.987 259.185L192.204 278.094L173.385 299.294C171.411 301.519 175.111 304.279 177.073 302.069L177.073 302.069Z"
            fill="#3F3D56" />
        <path
            d="M625.558 457.638H288.086C287.842 457.638 287.609 457.541 287.436 457.369C287.264 457.197 287.167 456.963 287.167 456.719C287.167 456.475 287.264 456.241 287.436 456.069C287.609 455.896 287.842 455.8 288.086 455.8H625.558C625.679 455.799 625.798 455.823 625.91 455.869C626.022 455.915 626.124 455.982 626.21 456.068C626.295 456.153 626.363 456.255 626.41 456.366C626.456 456.478 626.48 456.598 626.48 456.719C626.48 456.84 626.456 456.96 626.41 457.071C626.363 457.183 626.295 457.285 626.21 457.37C626.124 457.455 626.022 457.523 625.91 457.569C625.798 457.615 625.679 457.639 625.558 457.638Z"
            fill="#3F3D56" />
    </g>
    <defs>
        <clipPath id="clip0_2_222">
            <rect width="626.477" height="457.638" fill="white" />
        </clipPath>
    </defs>
</svg>