<svg viewBox="0 0 1105 798" fill="none" xmlns="http://www.w3.org/2000/svg">
    <g clip-path="url(#clip0_2_272)">
        <path d="M968.881 388.464H959.049V776.809H968.881V388.464Z" fill="#3F3D56" />
        <path
            d="M1059.61 437.954C1060.24 573.748 964.701 684.274 964.701 684.274C964.701 684.274 868.148 574.634 867.522 438.839C866.896 303.044 962.435 192.518 962.435 192.518C962.435 192.518 1058.99 302.159 1059.61 437.954Z"
            fill="#3F3D56" />
        <path d="M772.3 571.186H767.244V770.921H772.3V571.186Z" fill="#3F3D56" />
        <path
            d="M818.967 596.639C819.289 666.482 770.151 723.328 770.151 723.328C770.151 723.328 720.491 666.937 720.17 597.095C719.848 527.252 768.985 470.406 768.985 470.406C768.985 470.406 818.645 526.797 818.967 596.639Z"
            fill="#3F3D56" />
        <path
            d="M871.969 797.515C947.632 797.515 1008.97 788.113 1008.97 776.515C1008.97 764.917 947.632 755.515 871.969 755.515C796.306 755.515 734.969 764.917 734.969 776.515C734.969 788.113 796.306 797.515 871.969 797.515Z"
            fill="#3F3D56" />
        <path
            d="M883.268 287.081C871.661 267.469 848.698 266.555 848.698 266.555C848.698 266.555 826.321 263.694 811.967 293.563C798.588 321.404 780.122 348.285 808.994 354.802L814.209 338.57L817.439 356.011C821.55 356.306 825.674 356.377 829.792 356.222C860.712 355.223 890.158 356.514 889.21 345.419C887.949 330.669 894.436 305.952 883.268 287.081Z"
            fill="#2F2E41" />
        <path
            d="M841.469 324.015C841.469 324.015 856.469 345.015 847.469 362.015C838.469 379.015 868.469 397.015 868.469 397.015L890.469 349.015C890.469 349.015 864.469 332.015 871.469 316.015L841.469 324.015Z"
            fill="#FBBEBE" />
        <path
            d="M851.469 333.015C865.828 333.015 877.469 321.375 877.469 307.015C877.469 292.656 865.828 281.015 851.469 281.015C837.109 281.015 825.469 292.656 825.469 307.015C825.469 321.375 837.109 333.015 851.469 333.015Z"
            fill="#FBBEBE" />
        <path
            d="M761.489 337.071L783.217 309.037C783.217 309.037 790.868 279.652 801.949 281.142C813.029 282.632 797.572 316.382 797.572 316.382L775.982 347.412L761.489 337.071Z"
            fill="#FBBEBE" />
        <path d="M871.469 710.015L878.469 747.015L893.469 751.015L889.469 707.015L871.469 710.015Z" fill="#FBBEBE" />
        <path d="M1022.47 670.015L1049.47 707.015L1060.47 712.015L1069.47 697.015L1042.47 662.015L1022.47 670.015Z"
            fill="#FBBEBE" />
        <path
            d="M865.469 381.015L848.788 359.056C848.788 359.056 816.469 365.015 813.469 368.015C810.469 371.015 821.469 426.015 821.469 426.015C821.469 426.015 823.469 441.015 832.469 449.015L841.469 455.015L915.469 440.015L918.251 407.089C919.265 395.096 917.761 383.024 913.838 371.646C909.915 360.268 903.658 349.835 895.469 341.015L882.593 342.775L865.469 381.015Z"
            fill="#575A89" />
        <path
            d="M817.469 370.015L812.469 368.015L789.469 366.015C789.469 366.015 781.469 364.015 783.469 360.015C785.469 356.015 787.469 355.015 783.469 354.015C779.469 353.015 778.469 352.015 779.469 349.015C780.469 346.015 786.469 340.015 786.469 340.015L769.469 326.015C769.469 326.015 768.549 326.666 767.061 327.87C758.621 334.704 731.914 359.359 751.469 384.015C774.469 413.015 801.469 430.015 823.469 424.015L817.469 370.015Z"
            fill="#575A89" />
        <path
            d="M839.469 450.015V464.015C839.469 464.015 830.469 481.015 833.469 497.015C836.469 513.015 837.469 521.015 837.469 521.015C837.795 534.623 840.155 548.105 844.469 561.015C851.469 581.015 828.469 712.015 857.469 714.015C886.469 716.015 902.469 718.015 911.469 708.015C920.469 698.015 896.469 526.015 896.469 526.015C896.469 526.015 978.469 697.015 995.469 690.015C1012.47 683.015 1055.47 667.015 1050.47 658.015C1045.47 649.015 919.469 449.015 919.469 449.015L915.469 440.015L839.469 450.015Z"
            fill="#2F2E41" />
        <path
            d="M887.469 740.015C887.469 740.015 871.469 739.015 871.469 744.015C871.469 749.015 863.469 766.015 863.469 766.015C863.469 766.015 857.469 786.015 873.469 784.015C889.469 782.015 899.469 764.015 899.469 764.015L895.469 745.015L887.469 740.015Z"
            fill="#2F2E41" />
        <path
            d="M1054.47 705.015C1054.47 705.015 1040.47 696.015 1041.47 702.015C1042.47 708.015 1043.47 724.015 1050.47 725.015C1057.47 726.015 1078.47 732.015 1079.47 734.015C1080.47 736.015 1104.47 744.015 1104.47 731.015C1104.47 718.015 1089.47 708.015 1089.47 708.015L1072.47 695.015C1072.47 695.015 1061.47 694.015 1059.47 701.015C1057.47 708.015 1054.47 705.015 1054.47 705.015Z"
            fill="#2F2E41" />
        <path
            d="M851.508 283.258C860.678 283.258 868.112 275.825 868.112 266.655C868.112 257.485 860.678 250.051 851.508 250.051C842.338 250.051 834.904 257.485 834.904 266.655C834.904 275.825 842.338 283.258 851.508 283.258Z"
            fill="#2F2E41" />
        <path
            d="M833.157 262.285C833.157 258.184 834.675 254.229 837.418 251.18C840.161 248.132 843.935 246.207 848.013 245.775C847.432 245.713 846.849 245.682 846.265 245.681C841.861 245.681 837.638 247.431 834.524 250.545C831.41 253.658 829.661 257.882 829.661 262.285C829.661 266.689 831.41 270.912 834.524 274.026C837.638 277.14 841.861 278.889 846.265 278.889C846.849 278.888 847.432 278.857 848.013 278.796C843.935 278.364 840.161 276.438 837.418 273.39C834.675 270.341 833.157 266.386 833.157 262.285Z"
            fill="#2F2E41" />
        <path
            d="M878.136 285.191L855.45 273.307L824.12 278.169L817.638 306.797L833.774 306.176L838.282 295.659V306.003L845.727 305.717L850.048 288.972L852.749 306.797L879.217 306.257L878.136 285.191Z"
            fill="#2F2E41" />
        <path
            d="M876.778 452.332L841.791 453.278C841.791 453.278 811.937 459.087 813.612 447.037C815.287 434.987 844.411 439.202 844.411 439.202L876.291 434.338L876.778 452.332Z"
            fill="#FBBEBE" />
        <path
            d="M904.46 339.32C906.219 339.054 908.014 339.424 909.524 340.364C911.034 341.304 912.159 342.752 912.696 344.448C919.545 366.032 940.647 438.261 919.681 448.171C894.988 459.842 876.967 459.329 876.967 459.329L867.322 435.581L876.102 427.341L885.477 367.066L889.969 341.515L904.46 339.32Z"
            fill="#575A89" />
        <path opacity="0.4" d="M897.969 379.515L893.969 419.515L858.969 434.515L897.969 425.515V379.515Z"
            fill="black" />
        <path
            d="M709.214 247.463C720.487 250.45 730.241 257.535 736.567 267.332L739.838 272.398L740.002 272.607L797.387 289.399C798.439 289.707 799.328 290.415 799.863 291.372C800.398 292.328 800.536 293.457 800.248 294.514L795.793 310.849C795.648 311.381 795.399 311.879 795.061 312.315C794.722 312.75 794.301 313.115 793.821 313.387C793.342 313.659 792.813 313.833 792.265 313.9C791.718 313.967 791.163 313.925 790.631 313.777L733.232 297.733L733.231 297.735L727.466 299.914C716.851 303.927 705.207 304.323 694.344 301.04L709.214 247.463Z"
            fill="#3F3D56" />
        <path
            d="M769.647 294.836C770.19 292.978 767.808 290.647 764.325 289.628C760.842 288.608 757.578 289.288 757.035 291.146C756.491 293.003 758.874 295.335 762.357 296.354C765.839 297.373 769.103 296.693 769.647 294.836Z"
            fill="#575A89" />
        <path
            d="M766.716 296.549C768.047 296.549 769.125 295.47 769.125 294.14C769.125 292.809 768.047 291.731 766.716 291.731C765.386 291.731 764.307 292.809 764.307 294.14C764.307 295.47 765.386 296.549 766.716 296.549Z"
            fill="#3F3D56" />
        <path
            d="M714.012 278.403C718.797 263.646 717.266 249.928 710.593 247.764C703.919 245.6 694.63 255.809 689.845 270.567C685.059 285.324 686.59 299.042 693.264 301.206C699.937 303.37 709.226 293.161 714.012 278.403Z"
            fill="#9CF6F6" />
        <path opacity="0.4"
            d="M712.228 277.881C716.839 263.662 715.585 250.409 709.517 247.526C709.882 247.572 710.242 247.652 710.593 247.764C717.266 249.928 718.797 263.646 714.012 278.403C709.226 293.161 699.937 303.37 693.264 301.206C693.022 301.127 692.785 301.032 692.556 300.922C699.12 301.758 707.695 291.862 712.228 277.881Z"
            fill="black" />
        <path
            d="M709.969 247.515L579.731 146.49C556.701 128.496 534.6 109.343 513.516 89.1043C476.39 53.7166 425.992 25.4235 367.315 10.36C224.753 -26.2376 111.816 38.6545 60.4487 133.938C-18.0459 279.542 -78.2016 515.818 269.843 390.048C345.959 362.543 423.007 359.619 481.429 345.131L692.969 301.515L709.969 247.515Z"
            fill="#FBBEBE" />
        <path
            d="M318.969 77.5151C322.835 77.5151 325.969 74.3811 325.969 70.5151C325.969 66.6491 322.835 63.5151 318.969 63.5151C315.103 63.5151 311.969 66.6491 311.969 70.5151C311.969 74.3811 315.103 77.5151 318.969 77.5151Z"
            fill="#F2F2F2" />
        <path
            d="M454.949 86.695H453.127V84.873H452.771V86.695H450.949V87.051H452.771V88.873H453.127V87.051H454.949V86.695Z"
            fill="#F2F2F2" />
        <path
            d="M637.949 238.695H636.127V236.873H635.771V238.695H633.949V239.051H635.771V240.873H636.127V239.051H637.949V238.695Z"
            fill="#F2F2F2" />
        <path
            d="M624.949 285.695H623.127V283.873H622.771V285.695H620.949V286.051H622.771V287.873H623.127V286.051H624.949V285.695Z"
            fill="#F2F2F2" />
        <path
            d="M65.949 325.695H64.127V323.873H63.771V325.695H61.949V326.051H63.771V327.873H64.127V326.051H65.949V325.695Z"
            fill="#F2F2F2" />
        <path
            d="M145.949 107.695H144.127V105.873H143.771V107.695H141.949V108.051H143.771V109.873H144.127V108.051H145.949V107.695Z"
            fill="#F2F2F2" />
        <path
            d="M456.949 293.695H455.127V291.873H454.771V293.695H452.949V294.051H454.771V295.873H455.127V294.051H456.949V293.695Z"
            fill="#F2F2F2" />
        <path
            d="M265.949 43.695H264.127V41.873H263.771V43.695H261.949V44.051H263.771V45.873H264.127V44.051H265.949V43.695Z"
            fill="#F2F2F2" />
        <path
            d="M266.649 187.673L264.379 188.023C265.089 192.563 265.649 197.203 266.059 201.793L268.349 201.593C267.939 196.943 267.369 192.263 266.649 187.673Z"
            fill="#E6E6E6" />
        <path
            d="M260.439 160.333L258.239 161.003C259.569 165.403 260.759 169.913 261.769 174.403L264.019 173.893C262.989 169.353 261.779 164.793 260.439 160.333Z"
            fill="#E6E6E6" />
        <path
            d="M250.529 134.113L248.439 135.073C250.359 139.263 252.159 143.563 253.789 147.863L255.939 147.053C254.289 142.703 252.479 138.343 250.529 134.113Z"
            fill="#E6E6E6" />
        <path
            d="M237.129 109.533L235.189 110.763C237.659 114.643 240.029 118.663 242.229 122.693L244.249 121.593C242.029 117.513 239.629 113.453 237.129 109.533Z"
            fill="#E6E6E6" />
        <path
            d="M220.469 87.0029L218.719 88.4929C221.699 91.9929 224.599 95.6529 227.339 99.3529L229.179 97.9829C226.419 94.2429 223.489 90.5429 220.469 87.0029Z"
            fill="#E6E6E6" />
        <path
            d="M200.889 66.9431L199.359 68.6531C202.799 71.7231 206.169 74.9531 209.379 78.2431L211.029 76.6331C207.779 73.3031 204.369 70.0431 200.889 66.9431Z"
            fill="#E6E6E6" />
        <path
            d="M178.769 49.7229L177.479 51.6229C181.299 54.1929 185.079 56.9329 188.709 59.7629L190.129 57.9528C186.449 55.0929 182.629 52.3229 178.769 49.7229Z"
            fill="#E6E6E6" />
        <path
            d="M158.639 37.7629V40.3629C161.029 41.6129 163.399 42.9229 165.719 44.2629L166.869 42.2729C164.169 40.7129 161.426 39.2096 158.639 37.7629Z"
            fill="#E6E6E6" />
        <path
            d="M266.804 215.979L269.103 215.937C269.145 218.258 269.148 220.592 269.112 222.873L266.814 222.837C266.849 220.582 266.846 218.274 266.804 215.979Z"
            fill="#E6E6E6" />
        <path
            d="M131.649 384.673L129.379 385.023C130.089 389.563 130.649 394.203 131.059 398.793L133.349 398.593C132.939 393.943 132.369 389.263 131.649 384.673Z"
            fill="#E6E6E6" />
        <path
            d="M125.439 357.333L123.239 358.003C124.569 362.403 125.759 366.913 126.769 371.403L129.019 370.893C127.989 366.353 126.779 361.793 125.439 357.333Z"
            fill="#E6E6E6" />
        <path
            d="M115.529 331.113L113.439 332.073C115.359 336.263 117.159 340.563 118.789 344.863L120.939 344.053C119.289 339.703 117.479 335.343 115.529 331.113Z"
            fill="#E6E6E6" />
        <path
            d="M102.129 306.533L100.189 307.763C102.659 311.643 105.029 315.663 107.229 319.693L109.249 318.593C107.029 314.513 104.629 310.453 102.129 306.533Z"
            fill="#E6E6E6" />
        <path
            d="M85.4692 284.003L83.7192 285.493C86.6992 288.993 89.5992 292.653 92.3392 296.353L94.1792 294.983C91.4191 291.243 88.4891 287.543 85.4692 284.003Z"
            fill="#E6E6E6" />
        <path
            d="M65.8891 263.943L64.3591 265.653C67.7991 268.723 71.1691 271.953 74.3791 275.243L76.0291 273.633C72.7792 270.303 69.3691 267.043 65.8891 263.943Z"
            fill="#E6E6E6" />
        <path
            d="M43.7692 246.723L42.4792 248.623C46.2992 251.193 50.0792 253.933 53.7092 256.763L55.1292 254.953C51.4492 252.093 47.6292 249.323 43.7692 246.723Z"
            fill="#E6E6E6" />
        <path
            d="M23.6392 234.763V237.363C26.0292 238.613 28.3992 239.923 30.7192 241.263L31.8692 239.273C29.1691 237.713 26.4258 236.21 23.6392 234.763Z"
            fill="#E6E6E6" />
        <path
            d="M131.804 412.979L134.103 412.937C134.145 415.258 134.148 417.592 134.112 419.873L131.814 419.837C131.849 417.582 131.846 415.274 131.804 412.979Z"
            fill="#E6E6E6" />
        <path
            d="M593.649 285.673L591.379 286.023C592.089 290.563 592.649 295.203 593.059 299.793L595.349 299.593C594.939 294.943 594.369 290.263 593.649 285.673Z"
            fill="#E6E6E6" />
        <path
            d="M587.439 258.333L585.239 259.003C586.569 263.403 587.759 267.913 588.769 272.403L591.019 271.893C589.989 267.353 588.779 262.793 587.439 258.333Z"
            fill="#E6E6E6" />
        <path
            d="M577.529 232.113L575.439 233.073C577.359 237.263 579.159 241.563 580.789 245.863L582.939 245.053C581.289 240.703 579.479 236.343 577.529 232.113Z"
            fill="#E6E6E6" />
        <path
            d="M564.129 207.533L562.189 208.763C564.659 212.643 567.029 216.663 569.229 220.693L571.249 219.593C569.029 215.513 566.629 211.453 564.129 207.533Z"
            fill="#E6E6E6" />
        <path
            d="M547.469 185.003L545.719 186.493C548.699 189.993 551.599 193.653 554.339 197.353L556.179 195.983C553.419 192.243 550.489 188.543 547.469 185.003Z"
            fill="#E6E6E6" />
        <path
            d="M527.889 164.943L526.359 166.653C529.799 169.723 533.169 172.953 536.379 176.243L538.029 174.633C534.779 171.303 531.369 168.043 527.889 164.943Z"
            fill="#E6E6E6" />
        <path
            d="M505.769 147.723L504.479 149.623C508.299 152.193 512.079 154.933 515.709 157.763L517.129 155.953C513.449 153.093 509.629 150.323 505.769 147.723Z"
            fill="#E6E6E6" />
        <path
            d="M485.639 135.763V138.363C488.029 139.613 490.399 140.923 492.719 142.263L493.869 140.273C491.169 138.713 488.426 137.21 485.639 135.763Z"
            fill="#E6E6E6" />
        <path
            d="M593.804 313.979L596.103 313.937C596.145 316.258 596.148 318.592 596.112 320.873L593.814 320.837C593.849 318.582 593.846 316.274 593.804 313.979Z"
            fill="#E6E6E6" />
        <path
            d="M149.295 199.895H147.6V198.199H147.269V199.895H145.573V200.225H147.269V201.921H147.6V200.225H149.295V199.895Z"
            fill="#F2F2F2" />
        <path
            d="M129.754 302.252H128.059V300.556H127.728V302.252H126.032V302.583H127.728V304.278H128.059V302.583H129.754V302.252Z"
            fill="#F2F2F2" />
        <path
            d="M72.4171 391.959H70.7211V390.264H70.3901V391.959H68.6951V392.29H70.3901V393.986H70.7211V392.29H72.4171V391.959Z"
            fill="#F2F2F2" />
        <path
            d="M231.919 278.183C215.525 253.815 208.407 224.379 211.856 195.212C215.304 166.046 229.09 139.082 250.714 119.208C272.338 99.3348 300.368 87.8686 329.721 86.8889C359.074 85.9093 387.806 95.4811 410.707 113.869C433.608 132.256 449.161 158.242 454.546 187.113C459.931 215.984 454.792 245.829 440.06 271.236C425.328 296.643 401.978 315.93 374.246 325.598C346.514 335.266 316.235 334.676 288.9 323.934C287.128 330.259 283.815 336.047 279.258 340.777C274.701 345.508 269.042 349.035 262.787 351.043C256.533 353.05 249.878 353.475 243.419 352.28C236.96 351.085 230.898 348.306 225.776 344.194C220.654 340.081 216.631 334.763 214.069 328.714C211.506 322.666 210.484 316.077 211.092 309.536C211.701 302.996 213.922 296.708 217.557 291.236C221.191 285.765 226.126 281.28 231.919 278.183Z"
            fill="#3F3D56" />
        <path
            d="M333.128 139.437C361.282 139.437 380.652 155.053 380.652 177.501C380.652 192.367 373.445 202.652 359.555 210.836C346.492 218.418 342.062 223.974 342.062 233.584C342.062 234.363 341.909 235.134 341.611 235.854C341.313 236.573 340.876 237.227 340.325 237.778C339.775 238.329 339.121 238.766 338.401 239.064C337.681 239.362 336.91 239.515 336.131 239.515H321.738C320.201 239.515 318.724 238.918 317.618 237.85C316.512 236.783 315.865 235.327 315.811 233.791L315.785 233.058C314.509 217.592 319.915 207.983 333.504 200.024C346.192 192.442 351.522 187.637 351.522 178.327C351.522 169.018 342.513 162.185 331.326 162.185C322.824 162.185 316.095 166.324 313.009 173.081C311.924 175.368 310.207 177.297 308.06 178.639C305.914 179.982 303.428 180.681 300.897 180.655C291.145 180.655 284.702 170.284 289.263 161.664C296.477 148.028 311.699 139.437 333.128 139.437ZM313.383 268.12C313.383 259.486 320.59 252.654 329.449 252.654C338.384 252.654 345.591 259.411 345.591 268.12C345.591 276.829 338.384 283.586 329.449 283.586C320.515 283.586 313.383 276.829 313.383 268.12Z"
            fill="#9CF6F6" />
    </g>
    <defs>
        <clipPath id="clip0_2_272">
            <rect width="1104.47" height="797.515" fill="white" />
        </clipPath>
    </defs>
</svg>